<svg width="30" height="30" viewBox="0 0 30 30" fill="none" xmlns="http://www.w3.org/2000/svg">
<path fill-rule="evenodd" clip-rule="evenodd" d="M20.8905 12.8401C21.2998 13.1572 21.3745 13.7461 21.0574 14.1554L17.3961 18.8804C17.2431 19.0777 17.0179 19.2059 16.7701 19.2365C16.5223 19.2671 16.2725 19.1977 16.0761 19.0435L12.5533 16.278L9.38924 20.3891C9.07345 20.7995 8.48483 20.8761 8.07451 20.5604C7.66419 20.2445 7.58755 19.6559 7.90334 19.2456L11.6446 14.3844C11.7972 14.1861 12.0227 14.057 12.271 14.0259C12.5193 13.9947 12.7696 14.0642 12.9664 14.2187L16.4919 16.9861L19.5753 13.0069C19.8924 12.5976 20.4813 12.5229 20.8905 12.8401Z" fill="#C5C5C5"/>
<path fill-rule="evenodd" clip-rule="evenodd" d="M24.5839 5.125C23.7741 5.125 23.1189 5.78026 23.1189 6.59C23.1189 7.3988 23.7745 8.055 24.5839 8.055C25.3932 8.055 26.0489 7.3988 26.0489 6.59C26.0489 5.78026 25.3936 5.125 24.5839 5.125ZM21.2439 6.59C21.2439 4.74472 22.7386 3.25 24.5839 3.25C26.4291 3.25 27.9239 4.74472 27.9239 6.59C27.9239 8.4337 26.4295 9.93 24.5839 9.93C22.7382 9.93 21.2439 8.4337 21.2439 6.59Z" fill="#C5C5C5"/>
<path fill-rule="evenodd" clip-rule="evenodd" d="M6.25428 8.25872C4.72557 9.78745 3.99933 12.3452 3.99933 16.6288C3.99933 20.913 4.72558 23.4708 6.25425 24.9993C7.78294 26.5279 10.3406 27.2538 14.6244 27.2538C18.9088 27.2538 21.4664 26.5278 22.9949 24.9993C24.5234 23.4708 25.2494 20.9131 25.2494 16.6288C25.2494 15.2466 25.1746 14.0349 25.017 12.9741C24.9409 12.4619 25.2944 11.9851 25.8065 11.909C26.3186 11.8329 26.7955 12.1863 26.8716 12.6985C27.0465 13.8753 27.1244 15.1834 27.1244 16.6288C27.1244 21.0169 26.4053 24.2405 24.3206 26.3251C22.2361 28.4098 19.0125 29.1288 14.6244 29.1288C10.2368 29.1288 7.01323 28.4098 4.92848 26.3251C2.84372 24.2405 2.12433 21.017 2.12433 16.6288C2.12433 12.2412 2.84373 9.01762 4.92845 6.9329C7.01318 4.84818 10.2367 4.12878 14.6244 4.12878C16.0431 4.12878 17.3289 4.20407 18.4878 4.37225C19.0001 4.44661 19.3553 4.92227 19.2809 5.43467C19.2065 5.94707 18.7309 6.30217 18.2184 6.22781C17.1724 6.076 15.9805 6.00378 14.6244 6.00378C10.3407 6.00378 7.78299 6.73001 6.25428 8.25872Z" fill="#C5C5C5"/>
</svg>
