<svg width="20" height="20" viewBox="0 0 20 20" fill="none" xmlns="http://www.w3.org/2000/svg">
<path opacity="0.4" d="M7.22369 2.5H14.0888C16.4775 2.5 17.9572 3.83216 17.9499 6.28081V13.7119C17.9499 16.1605 16.4702 17.5 14.0815 17.5H7.22369C4.84234 17.5 3.35532 16.137 3.35532 13.6503V6.28081C3.35532 3.83216 4.84234 2.5 7.22369 2.5Z" stroke="#861C8C" stroke-width="1.25" stroke-linecap="round" stroke-linejoin="round"/>
<path d="M7.02346 9.87617V9.88451M7.02346 13.5953V13.6036M10.6371 9.87617V9.88451M10.6371 13.5953V13.6036M14.2508 9.87617V9.88451M14.2508 13.5953V13.6036M7.04466 9.79151C7.06525 9.79159 7.08535 9.79776 7.10242 9.80926C7.1195 9.82076 7.13279 9.83709 7.14061 9.85609C7.14844 9.87517 7.15044 9.89609 7.14638 9.91626C7.14231 9.93642 7.13236 9.95492 7.11778 9.96951C7.10319 9.98401 7.08463 9.99392 7.06444 9.99784C7.04424 10.0018 7.02331 9.99976 7.0043 9.99184C6.9853 9.98401 6.96905 9.97059 6.95762 9.95351C6.9462 9.93642 6.9401 9.91626 6.9401 9.89567C6.94002 9.88192 6.94268 9.86834 6.94791 9.85567C6.95315 9.84292 6.96085 9.83142 6.97058 9.82167C6.98031 9.81201 6.99187 9.80434 7.00459 9.79917C7.0173 9.79401 7.03093 9.79142 7.04466 9.79151ZM7.04466 13.5106C7.06525 13.5107 7.08535 13.5168 7.10242 13.5283C7.1195 13.5398 7.13279 13.5561 7.14061 13.5752C7.14844 13.5942 7.15044 13.6152 7.14638 13.6353C7.14231 13.6555 7.13236 13.674 7.11778 13.6886C7.10319 13.7031 7.08463 13.7129 7.06444 13.7169C7.04424 13.7209 7.02331 13.7188 7.0043 13.7109C6.9853 13.7031 6.96905 13.6897 6.95762 13.6726C6.9462 13.6554 6.9401 13.6353 6.9401 13.6148C6.94002 13.601 6.94268 13.5874 6.94791 13.5747C6.95315 13.562 6.96085 13.5505 6.97058 13.5408C6.98031 13.5311 6.99187 13.5234 7.00459 13.5183C7.0173 13.5131 7.03093 13.5104 7.04466 13.5106ZM10.6583 9.79151C10.6789 9.79159 10.699 9.79776 10.7161 9.80926C10.7332 9.82076 10.7464 9.83709 10.7542 9.85609C10.7621 9.87517 10.7641 9.89609 10.76 9.91626C10.756 9.93642 10.746 9.95492 10.7314 9.96951C10.7168 9.98401 10.6982 9.99392 10.6781 9.99784C10.6579 10.0018 10.637 9.99976 10.6179 9.99184C10.5989 9.98401 10.5827 9.97059 10.5712 9.95351C10.5598 9.93642 10.5537 9.91626 10.5537 9.89567C10.5537 9.88192 10.5563 9.86834 10.5616 9.85567C10.5668 9.84292 10.5745 9.83142 10.5842 9.82167C10.594 9.81201 10.6055 9.80434 10.6182 9.79917C10.6309 9.79401 10.6446 9.79142 10.6583 9.79151ZM10.6583 13.5106C10.6789 13.5107 10.699 13.5168 10.7161 13.5283C10.7332 13.5398 10.7464 13.5561 10.7542 13.5752C10.7621 13.5942 10.7641 13.6152 10.76 13.6353C10.756 13.6555 10.746 13.674 10.7314 13.6886C10.7168 13.7031 10.6982 13.7129 10.6781 13.7169C10.6579 13.7209 10.637 13.7188 10.6179 13.7109C10.5989 13.7031 10.5827 13.6897 10.5712 13.6726C10.5598 13.6554 10.5537 13.6353 10.5537 13.6148C10.5537 13.601 10.5563 13.5874 10.5616 13.5747C10.5668 13.562 10.5745 13.5505 10.5842 13.5408C10.594 13.5311 10.6055 13.5234 10.6182 13.5183C10.6309 13.5131 10.6446 13.5104 10.6583 13.5106ZM14.272 9.79151C14.2926 9.79159 14.3127 9.79776 14.3297 9.80926C14.3468 9.82076 14.3602 9.83709 14.3679 9.85609C14.3757 9.87517 14.3777 9.89609 14.3737 9.91626C14.3697 9.93642 14.3597 9.95492 14.3451 9.96951C14.3305 9.98401 14.312 9.99392 14.2917 9.99784C14.2716 10.0018 14.2507 9.99976 14.2317 9.99184C14.2127 9.98401 14.1964 9.97059 14.185 9.95351C14.1735 9.93642 14.1674 9.91626 14.1674 9.89567C14.1673 9.88192 14.17 9.86834 14.1752 9.85567C14.1805 9.84292 14.1882 9.83142 14.1979 9.82167C14.2077 9.81201 14.2192 9.80434 14.2319 9.79917C14.2447 9.79401 14.2582 9.79142 14.272 9.79151ZM14.272 13.5106C14.2926 13.5107 14.3127 13.5168 14.3297 13.5283C14.3468 13.5398 14.3602 13.5561 14.3679 13.5752C14.3757 13.5942 14.3777 13.6152 14.3737 13.6353C14.3697 13.6555 14.3597 13.674 14.3451 13.6886C14.3305 13.7031 14.312 13.7129 14.2917 13.7169C14.2716 13.7209 14.2507 13.7188 14.2317 13.7109C14.2127 13.7031 14.1964 13.6897 14.185 13.6726C14.1735 13.6554 14.1674 13.6353 14.1674 13.6148C14.1673 13.601 14.17 13.5874 14.1752 13.5747C14.1805 13.562 14.1882 13.5505 14.1979 13.5408C14.2077 13.5311 14.2192 13.5234 14.2319 13.5183C14.2447 13.5131 14.2582 13.5104 14.272 13.5106Z" stroke="#861C8C" stroke-width="1.25" stroke-linecap="round" stroke-linejoin="round"/>
<path d="M6.58365 6.38672H14.7226" stroke="#861C8C" stroke-width="1.25" stroke-linecap="round" stroke-linejoin="round"/>
</svg>
