<svg width="24" height="24" viewBox="0 0 24 24" fill="none" xmlns="http://www.w3.org/2000/svg">
<path fill-rule="evenodd" clip-rule="evenodd" d="M11.7599 3.75C7.38546 3.75 3.8399 7.44329 3.8399 12C3.8399 16.5558 7.38552 20.25 11.7599 20.25C16.1343 20.25 19.6799 16.5558 19.6799 12C19.6799 7.44329 16.1343 3.75 11.7599 3.75ZM2.3999 12C2.3999 6.61487 6.59018 2.25 11.7599 2.25C16.9296 2.25 21.1199 6.61487 21.1199 12C21.1199 17.3841 16.9297 21.75 11.7599 21.75C6.59012 21.75 2.3999 17.3841 2.3999 12Z" fill="#CAC4CF"/>
<path fill-rule="evenodd" clip-rule="evenodd" d="M11.4451 7.82617C11.8427 7.82617 12.1651 8.16196 12.1651 8.57617V12.2488L14.8622 13.9278C15.2036 14.1403 15.315 14.6008 15.111 14.9564C14.907 15.3119 14.4649 15.4279 14.1235 15.2154L11.0757 13.3181C10.8582 13.1827 10.7251 12.9383 10.7251 12.6743V8.57617C10.7251 8.16196 11.0475 7.82617 11.4451 7.82617Z" fill="#CAC4CF"/>
</svg>
