<svg width="16" height="16" viewBox="0 0 16 16" fill="none" xmlns="http://www.w3.org/2000/svg">
<path fill-rule="evenodd" clip-rule="evenodd" d="M1.70117 8C1.70117 4.40991 4.49469 1.5 7.94117 1.5C11.3876 1.5 14.1812 4.40991 14.1812 8C14.1812 8.27613 13.9663 8.5 13.7012 8.5C13.4361 8.5 13.2212 8.27613 13.2212 8C13.2212 4.96219 10.8575 2.5 7.94117 2.5C5.02488 2.5 2.66117 4.96219 2.66117 8C2.66117 11.0372 5.02492 13.5 7.94117 13.5C8.20626 13.5 8.42117 13.7239 8.42117 14C8.42117 14.2761 8.20626 14.5 7.94117 14.5C4.49466 14.5 1.70117 11.5894 1.70117 8Z" fill="#861C8C"/>
<path fill-rule="evenodd" clip-rule="evenodd" d="M10.0517 10.123C10.2392 9.92773 10.5431 9.92773 10.7306 10.123L13.3496 12.8512C13.5371 13.0465 13.5371 13.3631 13.3496 13.5583C13.1622 13.7536 12.8583 13.7536 12.6708 13.5583L10.0517 10.8301C9.86427 10.6349 9.86427 10.3183 10.0517 10.123Z" fill="#861C8C"/>
<path fill-rule="evenodd" clip-rule="evenodd" d="M13.3496 10.123C13.5371 10.3183 13.5371 10.6349 13.3496 10.8301L10.7306 13.5583C10.5431 13.7536 10.2392 13.7536 10.0517 13.5583C9.86427 13.3631 9.86427 13.0465 10.0517 12.8512L12.6708 10.123C12.8583 9.92773 13.1622 9.92773 13.3496 10.123Z" fill="#861C8C"/>
<path fill-rule="evenodd" clip-rule="evenodd" d="M8.15183 5.22526C8.41692 5.22526 8.63183 5.44912 8.63183 5.72526V8.4574C8.63183 8.63327 8.54312 8.79627 8.39816 8.88653L6.36629 10.152C6.13877 10.2937 5.84403 10.2165 5.70799 9.97947C5.57195 9.74247 5.64611 9.43547 5.87364 9.29374L7.67183 8.1738V5.72526C7.67183 5.44912 7.88674 5.22526 8.15183 5.22526Z" fill="#861C8C"/>
</svg>
