<svg width="16" height="16" viewBox="0 0 16 16" fill="none" xmlns="http://www.w3.org/2000/svg">
<path fill-rule="evenodd" clip-rule="evenodd" d="M1.70117 8C1.70117 4.40991 4.49469 1.5 7.94117 1.5C11.3876 1.5 14.1812 4.40991 14.1812 8C14.1812 8.27613 13.9663 8.5 13.7012 8.5C13.4361 8.5 13.2212 8.27613 13.2212 8C13.2212 4.96219 10.8575 2.5 7.94117 2.5C5.02488 2.5 2.66117 4.96219 2.66117 8C2.66117 11.0372 5.02492 13.5 7.94117 13.5C8.20626 13.5 8.42117 13.7239 8.42117 14C8.42117 14.2761 8.20626 14.5 7.94117 14.5C4.49466 14.5 1.70117 11.5894 1.70117 8Z" fill="#861C8C"/>
<path fill-rule="evenodd" clip-rule="evenodd" d="M8.15183 5.21745C8.41692 5.21745 8.63183 5.44131 8.63183 5.71745V8.44954C8.63183 8.62554 8.54306 8.78847 8.3981 8.87874L6.3662 10.1436C6.13864 10.2853 5.84392 10.2079 5.70794 9.97094C5.57194 9.73387 5.64618 9.42687 5.87373 9.28521L7.67183 8.16587V5.71745C7.67183 5.44131 7.88674 5.21745 8.15183 5.21745Z" fill="#861C8C"/>
<path fill-rule="evenodd" clip-rule="evenodd" d="M11.7 9.41147C11.9651 9.41147 12.18 9.63534 12.18 9.91147V13.7696C12.18 14.0457 11.9651 14.2696 11.7 14.2696C11.4349 14.2696 11.22 14.0457 11.22 13.7696V9.91147C11.22 9.63534 11.4349 9.41147 11.7 9.41147Z" fill="#861C8C"/>
<path fill-rule="evenodd" clip-rule="evenodd" d="M9.36743 11.8399C9.36743 11.5637 9.58234 11.3399 9.84743 11.3399H13.5513C13.8164 11.3399 14.0313 11.5637 14.0313 11.8399C14.0313 12.116 13.8164 12.3399 13.5513 12.3399H9.84743C9.58234 12.3399 9.36743 12.116 9.36743 11.8399Z" fill="#861C8C"/>
</svg>
