<svg width="16" height="16" viewBox="0 0 16 16" fill="none" xmlns="http://www.w3.org/2000/svg">
<path fill-rule="evenodd" clip-rule="evenodd" d="M7.92699 5.1263C8.19208 5.1263 8.40699 5.35016 8.40699 5.6263V8.3016C8.40699 8.4906 8.30465 8.6634 8.14254 8.74833L6.42689 9.64667C6.19003 9.77073 5.90151 9.67127 5.78244 9.42453C5.66338 9.1778 5.75887 8.87727 5.99572 8.7532L7.44699 7.99333V5.6263C7.44699 5.35016 7.66184 5.1263 7.92699 5.1263Z" fill="#861C8C"/>
<path fill-rule="evenodd" clip-rule="evenodd" d="M4.17295 3.57689C4.37174 3.75957 4.39072 4.07553 4.21534 4.28261C3.99801 4.53921 3.8071 4.80653 3.64185 5.0907C3.5045 5.32689 3.20934 5.40237 2.9826 5.25931C2.75586 5.11623 2.68339 4.80878 2.82074 4.57259C3.01791 4.23354 3.24347 3.91857 3.49545 3.62105C3.67083 3.41397 3.97415 3.3942 4.17295 3.57689Z" fill="#861C8C"/>
<path fill-rule="evenodd" clip-rule="evenodd" d="M2.55063 9.22407C2.80332 9.1406 3.07313 9.28633 3.15326 9.54953C3.26119 9.90413 3.41142 10.245 3.58724 10.5635C3.71941 10.8029 3.64026 11.1085 3.41046 11.2462C3.18066 11.3839 2.88723 11.3014 2.75506 11.062C2.55003 10.6907 2.36978 10.2842 2.23815 9.8518C2.15803 9.58853 2.29793 9.30753 2.55063 9.22407Z" fill="#861C8C"/>
<path fill-rule="evenodd" clip-rule="evenodd" d="M6.74529 13.1079C6.79886 13.1024 6.853 13.1062 6.90535 13.1193C7.27214 13.2113 7.65652 13.2564 8.04724 13.2552C8.31233 13.2544 8.52788 13.4776 8.52865 13.7537C8.52942 14.0299 8.31508 14.2544 8.04999 14.2552C7.60078 14.2565 7.15361 14.2063 6.72078 14.1015C6.50625 14.0706 6.33181 13.8903 6.3093 13.6559C6.28292 13.3811 6.4754 13.1361 6.73915 13.1086L6.74529 13.1079Z" fill="#861C8C"/>
<path fill-rule="evenodd" clip-rule="evenodd" d="M6.76498 2.13675C6.84575 2.39975 6.70661 2.6812 6.45413 2.76539C6.11444 2.87868 5.78774 3.02953 5.48409 3.21548C5.25556 3.35543 4.96138 3.27591 4.82703 3.03786C4.69268 2.79981 4.76902 2.49338 4.99755 2.35343C5.36469 2.12859 5.75668 1.94799 6.16146 1.813C6.41394 1.72881 6.68415 1.87376 6.76498 2.13675Z" fill="#861C8C"/>
<path fill-rule="evenodd" clip-rule="evenodd" d="M9.21162 2.63593C8.84401 2.54395 8.4602 2.49885 8.06954 2.50002C7.80446 2.50082 7.5889 2.27761 7.58814 2.00146C7.58743 1.72532 7.8017 1.50082 8.06679 1.50003C8.52855 1.49864 8.98743 1.55175 9.43185 1.66259C10.0685 1.81044 10.675 2.07006 11.2235 2.42037C11.552 2.62347 11.8623 2.85823 12.1464 3.12599C12.624 3.56972 13.0358 4.09286 13.3614 4.68431C13.5762 5.06608 13.749 5.47301 13.8795 5.89901C13.9794 6.21636 14.0552 6.54311 14.1063 6.88027C14.1575 7.2172 14.1822 7.55293 14.181 7.8864C14.1835 8.36313 14.1322 8.81707 14.0319 9.2648C14.0302 9.27753 14.028 9.2902 14.0253 9.3028C13.884 9.96767 13.6332 10.5942 13.298 11.1642C13.1056 11.5124 12.8731 11.8367 12.6194 12.1287C12.1933 12.6257 11.6862 13.0625 11.1156 13.4026L11.1147 13.4031C10.7539 13.6171 10.3647 13.8038 9.95594 13.9401C9.70353 14.0243 9.43332 13.8793 9.35249 13.6163C9.27166 13.3533 9.41079 13.0719 9.66327 12.9877C9.99889 12.8757 10.327 12.7195 10.6393 12.5344C11.1159 12.2503 11.5433 11.8827 11.9044 11.4615L11.9066 11.4589C12.1214 11.2117 12.3134 10.9423 12.469 10.6601C12.4704 10.6575 12.4718 10.6549 12.4733 10.6523C12.4743 10.6506 12.4752 10.6489 12.4763 10.6473C12.7547 10.175 12.9614 9.6618 13.0802 9.12273C13.0824 9.10553 13.0854 9.08847 13.0893 9.07153C13.1783 8.68593 13.2233 8.29867 13.221 7.88967V7.88473C13.2222 7.6048 13.2014 7.32187 13.1581 7.03647C13.1148 6.75107 13.0508 6.47573 12.9667 6.20887L12.9654 6.20477C12.8555 5.84535 12.7107 5.50511 12.5321 5.18815L12.5296 5.18361C12.2561 4.68623 11.9095 4.24565 11.5063 3.8712L11.5035 3.86861C11.2692 3.64766 11.0099 3.45095 10.7308 3.27861L10.7243 3.27462C10.2624 2.97915 9.75236 2.76117 9.21962 2.63785L9.21162 2.63593Z" fill="#861C8C"/>
<path fill-rule="evenodd" clip-rule="evenodd" d="M3.94157 11.9196C4.1195 11.7149 4.42304 11.6992 4.61956 11.8846C4.85397 12.1057 5.11239 12.3013 5.38423 12.468C5.61269 12.6081 5.68892 12.9145 5.55447 13.1525C5.42002 13.3905 5.12581 13.4699 4.89733 13.3299C4.57211 13.1305 4.26047 12.8949 3.97522 12.6259C3.7787 12.4405 3.76364 12.1243 3.94157 11.9196Z" fill="#861C8C"/>
<path fill-rule="evenodd" clip-rule="evenodd" d="M2.67275 6.06749C2.93043 6.13237 3.08883 6.40255 3.02655 6.67093C2.93787 7.05313 2.8946 7.45227 2.89685 7.86493C2.89836 8.14107 2.68467 8.3662 2.41958 8.3678C2.15449 8.36933 1.93837 8.14673 1.93687 7.8706C1.9342 7.38113 1.98553 6.901 2.09342 6.43604C2.15569 6.16762 2.41507 6.00262 2.67275 6.06749Z" fill="#861C8C"/>
<path fill-rule="evenodd" clip-rule="evenodd" d="M10.3308 11.5816C10.5858 11.6571 10.7338 11.9335 10.6614 12.1992L10.4152 13.103L11.2904 13.3543C11.546 13.4277 11.6961 13.703 11.6256 13.9692C11.5552 14.2354 11.2909 14.3917 11.0353 14.3183L9.69376 13.9331C9.57043 13.8977 9.46579 13.8125 9.40301 13.6964C9.34029 13.5802 9.32461 13.4428 9.35955 13.3146L9.73792 11.9261C9.81037 11.6605 10.0758 11.5062 10.3308 11.5816Z" fill="#861C8C"/>
</svg>
