<svg width="24" height="24" viewBox="0 0 24 24" fill="none" xmlns="http://www.w3.org/2000/svg">
<path d="M19.2787 13.7021C19.0877 13.7021 18.9046 13.6231 18.7695 13.4824C18.6345 13.3418 18.5587 13.151 18.5587 12.9521V9.1611C18.5595 8.81106 18.4297 8.47439 18.1968 8.22211L14.4585 4.16711C14.337 4.03561 14.1914 3.93092 14.0303 3.85928C13.8691 3.78764 13.6958 3.75049 13.5206 3.75009H7.93723C7.16154 3.75313 6.41738 4.07025 5.86203 4.63437C5.30668 5.19849 4.98366 5.96543 4.96124 6.7731V12.9521C4.96124 13.151 4.88537 13.3418 4.75035 13.4824C4.61532 13.6231 4.43219 13.7021 4.24124 13.7021C4.05029 13.7021 3.86715 13.6231 3.73211 13.4824C3.59709 13.3418 3.52124 13.151 3.52124 12.9521V6.75211C3.55067 5.55045 4.02817 4.40796 4.85252 3.5668C5.67687 2.72565 6.78328 2.25194 7.93723 2.24609H13.5225C13.8916 2.24709 14.2567 2.32522 14.5962 2.47586C14.9357 2.6265 15.2428 2.84661 15.4992 3.12311L19.2374 7.17911C19.7287 7.7102 20.0025 8.41955 20.0006 9.1571V12.9481C20.0011 13.0471 19.9828 13.1452 19.9467 13.2368C19.9107 13.3284 19.8575 13.4116 19.7904 13.4817C19.7233 13.5518 19.6435 13.6074 19.5557 13.6452C19.4678 13.683 19.3737 13.7024 19.2787 13.7021Z" fill="#861C8C"/>
<path d="M19.2135 9.41638H16.513C15.6539 9.414 14.8308 9.05705 14.2239 8.42371C13.6169 7.79036 13.2757 6.93227 13.275 6.03738V3.06641C13.275 2.86749 13.3508 2.67672 13.4859 2.53607C13.6209 2.39542 13.804 2.31641 13.995 2.31641C14.1859 2.31641 14.3691 2.39542 14.5041 2.53607C14.6391 2.67672 14.715 2.86749 14.715 3.06641V6.03738C14.7155 6.53487 14.9051 7.01189 15.2425 7.36404C15.5798 7.7162 16.0374 7.9148 16.515 7.91638H19.2135C19.4045 7.91638 19.5876 7.99543 19.7226 8.13608C19.8577 8.27673 19.9335 8.46747 19.9335 8.66638C19.9335 8.86529 19.8577 9.05606 19.7226 9.19672C19.5876 9.33737 19.4045 9.41638 19.2135 9.41638Z" fill="#861C8C"/>
<path d="M4.47751 21.7474C4.28655 21.7474 4.10341 21.6684 3.96839 21.5277C3.83337 21.3871 3.75751 21.1963 3.75751 20.9974V16.3824C3.75751 16.1835 3.83337 15.9927 3.96839 15.8521C4.10341 15.7114 4.28655 15.6324 4.47751 15.6324H5.82151C6.12126 15.6152 6.42125 15.6618 6.70312 15.7694C6.985 15.877 7.24284 16.0434 7.4609 16.2583C7.67895 16.4733 7.85265 16.7323 7.97135 17.0195C8.09005 17.3068 8.15128 17.6162 8.15128 17.9289C8.15128 18.2416 8.09005 18.5511 7.97135 18.8383C7.85265 19.1255 7.67895 19.3846 7.4609 19.5995C7.24284 19.8145 6.985 19.9808 6.70312 20.0884C6.42125 20.196 6.12126 20.2426 5.82151 20.2254H5.2004V20.9974C5.2004 21.0961 5.18167 21.1939 5.1453 21.2851C5.10894 21.3763 5.05566 21.4591 4.98849 21.5288C4.92132 21.5985 4.84162 21.6537 4.75393 21.6912C4.66624 21.7287 4.57231 21.7478 4.47751 21.7474ZM5.19751 18.7254H5.81864C5.92507 18.7358 6.03242 18.723 6.1338 18.6877C6.2352 18.6524 6.32841 18.5954 6.40745 18.5204C6.4865 18.4455 6.54965 18.3541 6.59286 18.2522C6.63607 18.1504 6.65839 18.0403 6.65839 17.9289C6.65839 17.8176 6.63607 17.7074 6.59286 17.6056C6.54965 17.5037 6.4865 17.4124 6.40745 17.3374C6.32841 17.2624 6.2352 17.2055 6.1338 17.1702C6.03242 17.1349 5.92507 17.122 5.81864 17.1324H5.19751V18.7254Z" fill="#861C8C"/>
<path d="M16.8712 21.7549C16.6803 21.7549 16.4971 21.6759 16.3622 21.5352C16.2271 21.3946 16.1512 21.2038 16.1512 21.0049V16.3789C16.1512 16.18 16.2271 15.9892 16.3622 15.8486C16.4971 15.7079 16.6803 15.6289 16.8712 15.6289H19.277C19.4679 15.6289 19.6511 15.7079 19.7861 15.8486C19.9212 15.9892 19.997 16.18 19.997 16.3789C19.997 16.5778 19.9212 16.7686 19.7861 16.9092C19.6511 17.0499 19.4679 17.1289 19.277 17.1289H17.5912V18.3289H18.9074C19.0983 18.3289 19.2815 18.4079 19.4165 18.5486C19.5516 18.6892 19.6274 18.88 19.6274 19.0789C19.6274 19.2778 19.5516 19.4686 19.4165 19.6092C19.2815 19.7499 19.0983 19.8289 18.9074 19.8289H17.5912V21.0039C17.5914 21.1025 17.5728 21.2001 17.5367 21.2912C17.5006 21.3823 17.4476 21.4651 17.3807 21.5349C17.3138 21.6046 17.2344 21.66 17.1471 21.6977C17.0596 21.7355 16.9659 21.7549 16.8712 21.7549Z" fill="#861C8C"/>
<path d="M11.4278 21.7549H10.32C10.129 21.7549 9.94586 21.6759 9.81089 21.5352C9.67582 21.3946 9.59998 21.2038 9.59998 21.0049V16.3789C9.59998 16.18 9.67582 15.9892 9.81089 15.8486C9.94586 15.7079 10.129 15.6289 10.32 15.6289H11.4297C11.8158 15.6289 12.1982 15.7081 12.555 15.8621C12.9118 16.016 13.2359 16.2416 13.509 16.526C13.782 16.8105 13.9986 17.1481 14.1463 17.5197C14.2942 17.8914 14.3702 18.2897 14.3702 18.6919C14.3702 19.0941 14.2942 19.4925 14.1463 19.8641C13.9986 20.2357 13.782 20.5734 13.509 20.8578C13.2359 21.1422 12.9118 21.3678 12.555 21.5218C12.1982 21.6757 11.8158 21.7549 11.4297 21.7549H11.4278ZM11.0381 20.2549H11.4278C11.8257 20.2549 12.2074 20.0902 12.4888 19.7971C12.7702 19.504 12.9283 19.1064 12.9283 18.6919C12.9283 18.2774 12.7702 17.8798 12.4888 17.5867C12.2074 17.2936 11.8257 17.1289 11.4278 17.1289H11.0381V20.2549Z" fill="#861C8C"/>
</svg>
