<svg width="32" height="32" viewBox="0 0 32 32" fill="none" xmlns="http://www.w3.org/2000/svg">
<rect width="32" height="32" rx="16" fill="#A6FBFF" fill-opacity="0.3"/>
<path d="M16 5.9993C21.53 5.9993 26 10.4803 26 15.9993C26 21.5203 21.53 25.9993 16 25.9993C10.48 25.9993 6 21.5203 6 15.9993C6 10.4803 10.48 5.9993 16 5.9993ZM16 18.9303C15.52 18.9303 15.13 19.3203 15.13 19.8003C15.13 20.2803 15.52 20.6803 16.01 20.6803C16.49 20.6803 16.88 20.2803 16.88 19.8003C16.88 19.3203 16.49 18.9303 16 18.9303ZM16 11.3293C15.52 11.3293 15.12 11.7303 15.12 12.2093V16.6293C15.12 17.1103 15.52 17.4993 16 17.4993C16.48 17.4993 16.87 17.1103 16.87 16.6293V12.2093C16.87 11.7303 16.48 11.3293 16 11.3293Z" fill="#A6FBFF" fill-opacity="0.93"/>
</svg>
