<svg width="20" height="20" viewBox="0 0 20 20" fill="none" xmlns="http://www.w3.org/2000/svg">
<path d="M10 2.5C8.30321 2.5 8.14278 5.45543 7.13259 6.49964C6.12241 7.54386 2.98183 6.34993 2.54549 8.20336C2.11006 10.0578 4.93529 10.6869 5.28363 12.2778C5.63381 13.8688 3.90768 16.1041 5.38263 17.2165C6.85759 18.328 8.44525 15.8123 10 15.8123" stroke="#861C8C" stroke-width="1.25" stroke-linecap="round" stroke-linejoin="round"/>
<path opacity="0.4" d="M10 2.5C11.6967 2.5 11.8582 5.45543 12.8683 6.49964C13.8776 7.54386 17.0191 6.34993 17.4545 8.20336C17.8899 10.0578 15.0656 10.6869 14.7163 12.2778C14.3671 13.8688 16.0923 16.1041 14.6173 17.2165C13.1424 18.328 11.5547 15.8123 10 15.8123" stroke="#861C8C" stroke-width="1.25" stroke-linecap="round" stroke-linejoin="round"/>
</svg>
