<svg width="24" height="24" viewBox="0 0 24 24" fill="none" xmlns="http://www.w3.org/2000/svg">
<rect width="24" height="24" rx="6" fill="#FFEFF1"/>
<path fill-rule="evenodd" clip-rule="evenodd" d="M16.9231 9.81334C17.1984 9.83601 17.4037 10.0767 17.3817 10.352C17.3777 10.3973 17.0164 14.8713 16.8084 16.748C16.6791 17.9127 15.9097 18.6213 14.7484 18.6427C13.8597 18.658 13.0024 18.6667 12.1644 18.6667C11.2611 18.6667 10.3804 18.6567 9.50907 18.6387C8.3944 18.6167 7.62307 17.894 7.49707 16.7527C7.28707 14.8593 6.92773 10.3967 6.9244 10.352C6.90173 10.0767 7.10707 9.83534 7.3824 9.81334C7.65373 9.80601 7.89907 9.99668 7.92107 10.2713C7.92319 10.3003 8.07009 12.1227 8.23017 13.9258L8.26233 14.2856C8.34295 15.1819 8.42468 16.0431 8.49107 16.6427C8.5624 17.2913 8.9124 17.626 9.52973 17.6387C11.1964 17.674 12.8971 17.676 14.7304 17.6427C15.3864 17.63 15.7411 17.302 15.8144 16.638C16.0211 14.7753 16.3811 10.3167 16.3851 10.2713C16.4071 9.99668 16.6504 9.80468 16.9231 9.81334ZM13.5636 5.33354C14.1756 5.33354 14.7136 5.74621 14.8716 6.33754L15.0409 7.17821C15.0957 7.45379 15.3375 7.65505 15.6175 7.65947L17.8053 7.65954C18.0813 7.65954 18.3053 7.88354 18.3053 8.15954C18.3053 8.43554 18.0813 8.65954 17.8053 8.65954L15.6371 8.65944C15.6337 8.65951 15.6303 8.65954 15.6269 8.65954L15.6107 8.65888L8.69441 8.65946C8.68904 8.65951 8.68365 8.65954 8.67827 8.65954L8.668 8.65888L6.5 8.65954C6.224 8.65954 6 8.43554 6 8.15954C6 7.88354 6.224 7.65954 6.5 7.65954L8.68733 7.65888L8.75468 7.65461C9.00554 7.62207 9.21402 7.43154 9.26493 7.17821L9.42693 6.36754C9.5916 5.74621 10.1296 5.33354 10.7416 5.33354H13.5636ZM13.5636 6.33354H10.7416C10.5816 6.33354 10.4409 6.44088 10.4003 6.59488L10.2449 7.37488C10.2252 7.47367 10.1964 7.56888 10.1597 7.65972H14.1457C14.1089 7.56888 14.0801 7.47367 14.0603 7.37488L13.8983 6.56421C13.8643 6.44088 13.7236 6.33354 13.5636 6.33354Z" fill="#FD5B71"/>
</svg>
