<svg width="24" height="24" viewBox="0 0 24 24" fill="none" xmlns="http://www.w3.org/2000/svg">
<path fill-rule="evenodd" clip-rule="evenodd" d="M6.52463 4.37364C6.86351 4.15664 6.96815 3.69364 6.75887 3.34164C6.54959 2.98864 6.10607 2.87964 5.76815 3.09764C4.46159 3.93664 3.31055 5.07964 2.43887 6.40064C2.21327 6.74164 2.29679 7.20864 2.62415 7.44364C2.74895 7.53264 2.89103 7.57564 3.03119 7.57564C3.26063 7.57564 3.48527 7.46164 3.62543 7.24964C4.38479 6.09964 5.38703 5.10464 6.52463 4.37364Z" fill="#E94243"/>
<path fill-rule="evenodd" clip-rule="evenodd" d="M20.9054 6.40057C20.0194 5.05757 18.8635 3.91457 17.5608 3.09357C17.2219 2.87957 16.7784 2.99257 16.572 3.34757C16.3666 3.70157 16.475 4.16257 16.8158 4.37757C17.9438 5.08857 18.947 6.08157 19.7189 7.25057C19.8581 7.46157 20.0837 7.57557 20.3122 7.57557C20.4533 7.57557 20.5954 7.53257 20.7202 7.44357C21.0475 7.20857 21.1301 6.74157 20.9054 6.40057Z" fill="#E94243"/>
<path fill-rule="evenodd" clip-rule="evenodd" d="M13.8868 14.2847C14.1681 14.5767 14.1681 15.0527 13.8868 15.3457C13.7466 15.4917 13.5623 15.5647 13.378 15.5647C13.1937 15.5647 13.0094 15.4917 12.8682 15.3457L11.6682 14.0957L10.4673 15.3457C10.3271 15.4917 10.1428 15.5647 9.95848 15.5647C9.77416 15.5647 9.5898 15.4917 9.44868 15.3457C9.1674 15.0527 9.1674 14.5767 9.44868 14.2847L10.6497 13.0347L9.44868 11.7847C9.1674 11.4927 9.1674 11.0177 9.44868 10.7247C9.72904 10.4317 10.186 10.4317 10.4673 10.7247L11.6682 11.9747L12.8682 10.7247C13.1495 10.4317 13.6055 10.4317 13.8868 10.7247C14.1681 11.0177 14.1681 11.4927 13.8868 11.7847L12.6868 13.0347L13.8868 14.2847ZM11.6673 5.05566C7.44324 5.05566 4.00548 8.63466 4.00548 13.0347C4.00548 17.4357 7.44324 21.0147 11.6673 21.0147C15.8932 21.0147 19.331 17.4357 19.331 13.0347C19.331 8.63466 15.8932 5.05566 11.6673 5.05566Z" fill="#E94243"/>
</svg>
