<svg width="30" height="30" viewBox="0 0 30 30" fill="none" xmlns="http://www.w3.org/2000/svg">
<path fill-rule="evenodd" clip-rule="evenodd" d="M19.6767 14.3065L15.0267 18.9565C14.8392 19.1315 14.6017 19.2315 14.3642 19.2315C14.1142 19.2315 13.8767 19.1315 13.7017 18.9565L11.4392 16.694C11.0767 16.3315 11.0767 15.7315 11.4392 15.369C11.8017 15.0065 12.4017 15.0065 12.7642 15.369L14.3642 16.969L18.3517 12.9815C18.7142 12.619 19.3142 12.619 19.6767 12.9815C20.0392 13.344 20.0392 13.944 19.6767 14.3065ZM14.9892 6.31898C9.48916 6.31898 5.01416 10.794 5.01416 16.294C5.01416 21.794 9.48916 26.269 14.9892 26.269C20.5017 26.269 24.9767 21.794 24.9767 16.294C24.9767 10.794 20.5017 6.31898 14.9892 6.31898Z" fill="white"/>
<path fill-rule="evenodd" clip-rule="evenodd" d="M8.29265 5.48083C8.73515 5.21083 8.87515 4.63458 8.60515 4.19208C8.3364 3.74958 7.7589 3.61083 7.31765 3.87958C5.61765 4.91458 4.11765 6.33958 2.97765 7.99958C2.6839 8.42583 2.79265 9.00958 3.2189 9.30333C3.3814 9.41458 3.5664 9.46708 3.7489 9.46708C4.04765 9.46708 4.34015 9.32583 4.52265 9.06083C5.5139 7.61708 6.81765 6.37958 8.29265 5.48083Z" fill="white"/>
<path fill-rule="evenodd" clip-rule="evenodd" d="M27.0226 7.9995C25.8688 6.32075 24.3626 4.892 22.6676 3.86575C22.2263 3.59825 21.6488 3.7395 21.3801 4.18325C21.1126 4.62575 21.2538 5.202 21.6976 5.47075C23.1663 6.3595 24.4726 7.60075 25.4776 9.062C25.6588 9.327 25.9526 9.46825 26.2501 9.46825C26.4338 9.46825 26.6188 9.4145 26.7813 9.30325C27.2076 9.0095 27.3151 8.42575 27.0226 7.9995Z" fill="white"/>
</svg>
