<svg width="24" height="24" viewBox="0 0 24 24" fill="none" xmlns="http://www.w3.org/2000/svg">
<path fill-rule="evenodd" clip-rule="evenodd" d="M15.3616 15.7052C15.2216 15.9452 14.9716 16.0752 14.7216 16.0752C14.5916 16.0752 14.4516 16.0352 14.3316 15.9652L11.6016 14.3252C11.3716 14.1952 11.2316 13.9452 11.2316 13.6852V10.1552C11.2316 9.73517 11.5716 9.40517 11.9816 9.40517C12.3916 9.40517 12.7316 9.73517 12.7316 10.1552V13.2552L15.1016 14.6852C15.4616 14.8952 15.5816 15.3552 15.3616 15.7052ZM12.1516 5.03517C7.75163 5.03517 4.17163 8.61517 4.17163 13.0152C4.17163 17.4152 7.75163 20.9952 12.1516 20.9952C16.5516 20.9952 20.1316 17.4152 20.1316 13.0152C20.1316 8.61517 16.5516 5.03517 12.1516 5.03517Z" fill="#5F57FF"/>
<path fill-rule="evenodd" clip-rule="evenodd" d="M6.79642 4.40246C7.14942 4.18446 7.25842 3.72246 7.04042 3.37046C6.82142 3.01746 6.35942 2.90846 6.00842 3.12646C4.63542 3.97346 3.43542 5.11646 2.53842 6.43146C2.30542 6.77346 2.39342 7.24046 2.73542 7.47346C2.86442 7.56246 3.01142 7.60446 3.15742 7.60446C3.39742 7.60446 3.63242 7.48946 3.77742 7.27746C4.55742 6.13446 5.60142 5.14046 6.79642 4.40246Z" fill="#5F57FF"/>
<path fill-rule="evenodd" clip-rule="evenodd" d="M21.7779 6.43196C20.8719 5.10196 19.6679 3.95496 18.2969 3.11496C17.9439 2.89896 17.4819 3.00896 17.2649 3.36196C17.0489 3.71596 17.1589 4.17696 17.5119 4.39396C18.7049 5.12396 19.7509 6.12096 20.5389 7.27696C20.6839 7.48996 20.9189 7.60396 21.1589 7.60396C21.3039 7.60396 21.4509 7.56196 21.5809 7.47396C21.9229 7.24096 22.0109 6.77396 21.7779 6.43196Z" fill="#5F57FF"/>
</svg>
