<svg width="24" height="24" viewBox="0 0 24 24" fill="none" xmlns="http://www.w3.org/2000/svg">
<path fill-rule="evenodd" clip-rule="evenodd" d="M14.1228 13.7852H12.3852V15.5952C12.3852 16.0052 12.0588 16.3452 11.6652 16.3452C11.2716 16.3452 10.9452 16.0052 10.9452 15.5952V13.7852H9.21719C8.81399 13.7852 8.49719 13.4452 8.49719 13.0352C8.49719 12.6152 8.81399 12.2852 9.21719 12.2852H10.9452V10.4852C10.9452 10.0752 11.2716 9.73518 11.6652 9.73518C12.0588 9.73518 12.3852 10.0752 12.3852 10.4852V12.2852H14.1228C14.5164 12.2852 14.8428 12.6152 14.8428 13.0352C14.8428 13.4452 14.5164 13.7852 14.1228 13.7852ZM11.6652 5.05518C7.44119 5.05518 4.00439 8.63518 4.00439 13.0352C4.00439 17.4352 7.44119 21.0152 11.6652 21.0152C15.8892 21.0152 19.326 17.4352 19.326 13.0352C19.326 8.63518 15.8892 5.05518 11.6652 5.05518Z" fill="#F3A540"/>
<path fill-rule="evenodd" clip-rule="evenodd" d="M6.5206 4.38467C6.86044 4.16867 6.96796 3.70767 6.7606 3.35367C6.5542 2.99967 6.10972 2.88867 5.7718 3.10367C4.46812 3.93067 3.31612 5.07067 2.43868 6.39967C2.21308 6.74067 2.2966 7.20767 2.62396 7.44267C2.7478 7.53067 2.89084 7.57367 3.031 7.57367C3.26044 7.57367 3.48508 7.46067 3.62524 7.24867C4.38844 6.09367 5.38972 5.10267 6.5206 4.38467Z" fill="#F3A540"/>
<path fill-rule="evenodd" clip-rule="evenodd" d="M20.9052 6.39961C20.0201 5.05761 18.8633 3.91361 17.5606 3.09261C17.2217 2.87861 16.7772 2.99161 16.5718 3.34661C16.3663 3.70061 16.4748 4.16161 16.8156 4.37661C17.9446 5.08761 18.9478 6.08061 19.7187 7.24961C19.8579 7.46061 20.0835 7.57461 20.3119 7.57461C20.4531 7.57461 20.5951 7.53161 20.7199 7.44261C21.0473 7.20861 21.1299 6.74061 20.9052 6.39961Z" fill="#F3A540"/>
</svg>
