<svg width="16" height="16" viewBox="0 0 16 16" fill="none" xmlns="http://www.w3.org/2000/svg">
<path fill-rule="evenodd" clip-rule="evenodd" d="M7.93797 4.12109C5.55847 4.12109 3.62992 6.13048 3.62992 8.60927C3.62992 11.088 5.55838 13.0968 7.93797 13.0968C10.3176 13.0968 12.2466 11.0879 12.2466 8.60927C12.2466 6.13056 10.3175 4.12109 7.93797 4.12109ZM2.66992 8.60927C2.66992 5.57836 5.02811 3.12109 7.93797 3.12109C10.8477 3.12109 13.2066 5.57828 13.2066 8.60927C13.2066 11.6403 10.8476 14.0968 7.93797 14.0968C5.02819 14.0968 2.66992 11.6403 2.66992 8.60927Z" fill="#861C8C"/>
<path fill-rule="evenodd" clip-rule="evenodd" d="M4.66602 2.148C4.80506 2.38311 4.73479 2.69112 4.50907 2.83595C3.74707 3.32487 3.08442 3.98075 2.57694 4.75075C2.4269 4.97841 2.1281 5.03627 1.90955 4.87997C1.691 4.72369 1.63546 4.41243 1.7855 4.18477C2.36901 3.29941 3.12987 2.54641 4.00559 1.98451C4.23131 1.83968 4.527 1.91288 4.66602 2.148Z" fill="#861C8C"/>
<path fill-rule="evenodd" clip-rule="evenodd" d="M11.2093 2.14279C11.3476 1.90723 11.6431 1.83309 11.8692 1.97721C12.7524 2.54005 13.514 3.29971 14.0969 4.18491C14.2468 4.41262 14.1912 4.72385 13.9726 4.88005C13.754 5.03627 13.4552 4.9783 13.3053 4.75058C12.7972 3.9791 12.134 3.31821 11.3682 2.83023C11.1421 2.68612 11.071 2.37834 11.2093 2.14279Z" fill="#861C8C"/>
<path fill-rule="evenodd" clip-rule="evenodd" d="M6.35169 7.3164C6.35169 7.04027 6.56661 6.8164 6.8317 6.8164H9.06908C9.25916 6.8164 9.43138 6.93327 9.50818 7.1144C9.58498 7.29553 9.55189 7.5068 9.42389 7.6532L7.89416 9.40193H9.06908C9.33416 9.40193 9.54908 9.6258 9.54908 9.90193C9.54908 10.1781 9.33416 10.4019 9.06908 10.4019H6.80738C6.6173 10.4019 6.44514 10.2851 6.36832 10.104C6.29152 9.92287 6.32457 9.71153 6.45263 9.5652L7.98236 7.8164H6.8317C6.56661 7.8164 6.35169 7.59253 6.35169 7.3164Z" fill="#861C8C"/>
</svg>
