<svg width="28" height="28" viewBox="0 0 28 28" fill="none" xmlns="http://www.w3.org/2000/svg">
<g clip-path="url(#clip0_559_7426)">
<g clip-path="url(#clip1_559_7426)">
<path fill-rule="evenodd" clip-rule="evenodd" d="M3.50004 0.000244141C2.85571 0.000244141 2.33337 0.522577 2.33337 1.16691V26.8336C2.33337 27.4779 2.85571 28.0002 3.50004 28.0002H24.5C25.1444 28.0002 25.6667 27.4779 25.6667 26.8336V1.16691C25.6667 1.16357 25.6667 1.16024 25.6667 1.15691V4.66699L21 0.000325521H24.514C24.5093 0.000271317 24.5047 0.000244141 24.5 0.000244141H3.50004Z" fill="#E9F0FA"/>
<path fill-rule="evenodd" clip-rule="evenodd" d="M21 0.000244141V4.66683H25.6667L21.0001 0.000244141H21Z" fill="#C2CDDE"/>
</g>
<rect x="-0.666626" y="10.8335" width="25.6667" height="11.6667" rx="1.16667" fill="#4881F1"/>
<path d="M5.0333 13.0456V19.8335H3.80366V13.0456H5.0333ZM6.36486 13.0456H7.8696L9.88475 17.9642H9.96429L11.9794 13.0456H13.4842V19.8335H12.3043V15.1701H12.2413L10.3653 19.8136H9.48371L7.60776 15.1602H7.54479V19.8335H6.36486V13.0456ZM19.3705 15.2132C19.3153 15.0343 19.2391 14.8741 19.1419 14.7326C19.0468 14.589 18.9319 14.4664 18.7972 14.3647C18.6646 14.2631 18.5121 14.1869 18.3398 14.1361C18.1674 14.083 17.9796 14.0565 17.7763 14.0565C17.4117 14.0565 17.0869 14.1482 16.8019 14.3316C16.5168 14.515 16.2926 14.7846 16.1291 15.1403C15.9678 15.4938 15.8871 15.9247 15.8871 16.4329C15.8871 16.9456 15.9678 17.3797 16.1291 17.7355C16.2904 18.0912 16.5146 18.3619 16.8019 18.5475C17.0891 18.7309 17.4228 18.8226 17.8028 18.8226C18.1475 18.8226 18.4458 18.7563 18.6977 18.6237C18.9518 18.4912 19.1474 18.3034 19.2844 18.0603C19.4214 17.815 19.4899 17.5278 19.4899 17.1986L19.7683 17.2416H17.9255V16.2805H20.6797V17.0958C20.6797 17.6769 20.556 18.1796 20.3085 18.6039C20.061 19.0281 19.7208 19.3551 19.2877 19.5849C18.8546 19.8125 18.3574 19.9263 17.7962 19.9263C17.1709 19.9263 16.6218 19.786 16.149 19.5054C15.6783 19.2225 15.3104 18.8215 15.0453 18.3022C14.7823 17.7808 14.6508 17.1621 14.6508 16.4462C14.6508 15.8982 14.7282 15.4088 14.8829 14.9779C15.0397 14.547 15.2585 14.1813 15.5391 13.8808C15.8197 13.5781 16.149 13.3483 16.5268 13.1914C16.9046 13.0324 17.3156 12.9528 17.7597 12.9528C18.1354 12.9528 18.4856 13.0081 18.8104 13.1185C19.1352 13.2268 19.4236 13.3815 19.6755 13.5825C19.9296 13.7836 20.1384 14.0223 20.3019 14.2985C20.4654 14.5747 20.5726 14.8796 20.6234 15.2132H19.3705Z" fill="white"/>
</g>
<defs>
<clipPath id="clip0_559_7426">
<rect width="28" height="28" fill="white"/>
</clipPath>
<clipPath id="clip1_559_7426">
<rect width="23.3333" height="28" fill="white" transform="translate(2.33337 0.000244141)"/>
</clipPath>
</defs>
</svg>
