<svg width="28" height="29" viewBox="0 0 28 29" fill="none" xmlns="http://www.w3.org/2000/svg">
<g clip-path="url(#clip0_559_7421)">
<g clip-path="url(#clip1_559_7421)">
<path fill-rule="evenodd" clip-rule="evenodd" d="M21.0001 0.333252L25.6667 4.99984V1.48992C25.6667 1.49325 25.6667 1.49658 25.6667 1.49992V27.1666C25.6667 27.8109 25.1444 28.3333 24.5 28.3333H3.50004C2.85571 28.3333 2.33337 27.8109 2.33337 27.1666V1.49992C2.33337 0.855585 2.85571 0.333252 3.50004 0.333252H21.0001Z" fill="#E9F0FA"/>
<path fill-rule="evenodd" clip-rule="evenodd" d="M21 0.333252V4.99992H25.6667L21 0.333252Z" fill="#C2CDDE"/>
</g>
<rect x="-0.666626" y="11.1665" width="25.6667" height="11.6667" rx="1.16667" fill="#6D56F8"/>
<path d="M2.56408 13.3786H4.06881L6.08397 18.2972H6.16351L8.17866 13.3786H9.6834V20.1665H8.50347V15.5032H8.4405L6.56455 20.1466H5.68292L3.80698 15.4932H3.744V20.1665H2.56408V13.3786ZM11.0224 20.1665V13.3786H13.5679C14.0893 13.3786 14.5268 13.4758 14.8804 13.6703C15.2361 13.8647 15.5046 14.1321 15.6858 14.4724C15.8692 14.8104 15.9609 15.1949 15.9609 15.6258C15.9609 16.0611 15.8692 16.4478 15.6858 16.7858C15.5024 17.1239 15.2317 17.3901 14.8737 17.5846C14.5158 17.7768 14.075 17.8729 13.5513 17.8729H11.8643V16.8621H13.3856C13.6905 16.8621 13.9402 16.809 14.1346 16.703C14.3291 16.5969 14.4727 16.4511 14.5655 16.2655C14.6605 16.0799 14.708 15.8666 14.708 15.6258C14.708 15.3849 14.6605 15.1728 14.5655 14.9894C14.4727 14.806 14.328 14.6635 14.1313 14.5619C13.9369 14.458 13.6861 14.4061 13.3789 14.4061H12.2521V20.1665H11.0224ZM19.3987 20.2593C18.9214 20.2593 18.4972 20.1776 18.126 20.014C17.757 19.8505 17.4653 19.6229 17.251 19.3313C17.0367 19.0396 16.9229 18.7026 16.9096 18.3204H18.1558C18.1669 18.5038 18.2276 18.664 18.3381 18.801C18.4486 18.9358 18.5955 19.0407 18.7789 19.1158C18.9623 19.191 19.1678 19.2285 19.3954 19.2285C19.6385 19.2285 19.8539 19.1865 20.0417 19.1026C20.2295 19.0164 20.3765 18.8971 20.4825 18.7446C20.5886 18.5922 20.6405 18.4165 20.6383 18.2176C20.6405 18.0121 20.5875 17.831 20.4792 17.6741C20.3709 17.5172 20.2141 17.3946 20.0086 17.3062C19.8053 17.2178 19.56 17.1736 19.2728 17.1736H18.6729V16.2257H19.2728C19.5092 16.2257 19.7158 16.1848 19.8926 16.1031C20.0715 16.0213 20.2118 15.9064 20.3135 15.7584C20.4151 15.6081 20.4648 15.4347 20.4626 15.238C20.4648 15.0458 20.4218 14.8789 20.3334 14.7375C20.2472 14.5939 20.1246 14.4823 19.9655 14.4028C19.8086 14.3232 19.6241 14.2835 19.412 14.2835C19.2043 14.2835 19.012 14.321 18.8353 14.3961C18.6585 14.4713 18.516 14.5784 18.4077 14.7176C18.2994 14.8546 18.242 15.0181 18.2354 15.2082H17.0521C17.061 14.8281 17.1703 14.4945 17.3803 14.2072C17.5924 13.9178 17.8752 13.6924 18.2287 13.5311C18.5823 13.3676 18.9789 13.2858 19.4186 13.2858C19.8716 13.2858 20.2649 13.3709 20.5985 13.541C20.9344 13.709 21.194 13.9354 21.3774 14.2205C21.5608 14.5055 21.6525 14.8204 21.6525 15.1651C21.6547 15.5473 21.542 15.8677 21.3144 16.1263C21.0891 16.3848 20.793 16.5538 20.4262 16.6334V16.6864C20.9035 16.7527 21.2691 16.9294 21.5232 17.2167C21.7796 17.5017 21.9066 17.8564 21.9044 18.2806C21.9044 18.6607 21.7961 19.0009 21.5796 19.3014C21.3653 19.5997 21.0692 19.834 20.6913 20.0041C20.3157 20.1742 19.8848 20.2593 19.3987 20.2593Z" fill="white"/>
</g>
<defs>
<clipPath id="clip0_559_7421">
<rect width="28" height="28" fill="white" transform="translate(0 0.333496)"/>
</clipPath>
<clipPath id="clip1_559_7421">
<rect width="23.3333" height="28" fill="white" transform="translate(2.33337 0.333252)"/>
</clipPath>
</defs>
</svg>
