<svg width="28" height="29" viewBox="0 0 28 29" fill="none" xmlns="http://www.w3.org/2000/svg">
<g clip-path="url(#clip0_559_7425)">
<g clip-path="url(#clip1_559_7425)">
<path fill-rule="evenodd" clip-rule="evenodd" d="M3.50004 0.666748C2.85571 0.666748 2.33337 1.18908 2.33337 1.83341V27.5001C2.33337 28.1444 2.85571 28.6667 3.50004 28.6667H24.5C25.1444 28.6667 25.6667 28.1444 25.6667 27.5001V1.83341C25.6667 1.83008 25.6667 1.82675 25.6667 1.82342V5.33341L21 0.666748H3.50004Z" fill="#E9F0FA"/>
<path fill-rule="evenodd" clip-rule="evenodd" d="M21 0.666748V5.33341H25.6667L21 0.666748Z" fill="#C2CDDE"/>
</g>
<rect x="-0.666626" y="11.5" width="25.6667" height="11.6667" rx="1.16667" fill="#F14848"/>
<path d="M3.71707 20.5V13.7121H6.26253C6.78399 13.7121 7.22149 13.8093 7.57503 14.0038C7.93077 14.1982 8.19924 14.4656 8.38043 14.8059C8.56382 15.1439 8.65552 15.5284 8.65552 15.9593C8.65552 16.3946 8.56382 16.7812 8.38043 17.1193C8.19703 17.4574 7.92635 17.7236 7.5684 17.9181C7.21045 18.1103 6.76963 18.2064 6.24596 18.2064H4.55893V17.1955H6.08024C6.38516 17.1955 6.63485 17.1425 6.82929 17.0365C7.02373 16.9304 7.16736 16.7846 7.26016 16.599C7.35517 16.4134 7.40268 16.2001 7.40268 15.9593C7.40268 15.7184 7.35517 15.5063 7.26016 15.3229C7.16736 15.1395 7.02263 14.997 6.82598 14.8954C6.63153 14.7915 6.38074 14.7396 6.07361 14.7396H4.94671V20.5H3.71707ZM12.0238 20.5H9.72358V13.7121H12.0702C12.7441 13.7121 13.323 13.848 13.8069 14.1198C14.293 14.3894 14.6665 14.7771 14.9272 15.2831C15.1879 15.7891 15.3183 16.3946 15.3183 17.0994C15.3183 17.8065 15.1868 18.4141 14.9239 18.9223C14.6631 19.4306 14.2864 19.8205 13.7937 20.0923C13.3031 20.3641 12.7132 20.5 12.0238 20.5ZM10.9532 19.4361H11.9641C12.437 19.4361 12.8314 19.3499 13.1474 19.1776C13.4633 19.003 13.7009 18.7434 13.8599 18.3987C14.019 18.0518 14.0986 17.6187 14.0986 17.0994C14.0986 16.5802 14.019 16.1493 13.8599 15.8068C13.7009 15.4621 13.4655 15.2047 13.154 15.0346C12.8446 14.8622 12.4602 14.776 12.0006 14.776H10.9532V19.4361ZM16.4866 20.5V13.7121H20.8351V14.7429H17.7162V16.5857H20.5368V17.6165H17.7162V20.5H16.4866Z" fill="white"/>
</g>
<defs>
<clipPath id="clip0_559_7425">
<rect width="28" height="28" fill="white" transform="translate(0 0.666748)"/>
</clipPath>
<clipPath id="clip1_559_7425">
<rect width="23.3333" height="28" fill="white" transform="translate(2.33337 0.666748)"/>
</clipPath>
</defs>
</svg>
