<svg width="28" height="28" viewBox="0 0 28 28" fill="none" xmlns="http://www.w3.org/2000/svg">
<g clip-path="url(#clip0_559_7423)">
<g clip-path="url(#clip1_559_7423)">
<path fill-rule="evenodd" clip-rule="evenodd" d="M3.50004 0.000244141C2.85571 0.000244141 2.33337 0.522577 2.33337 1.16691V26.8336C2.33337 27.4779 2.85571 28.0002 3.50004 28.0002H24.5C25.1444 28.0002 25.6667 27.4779 25.6667 26.8336V1.16691C25.6667 1.16357 25.6667 1.16024 25.6667 1.15691V4.66699L21 0.000325521H24.514C24.5093 0.000271317 24.5047 0.000244141 24.5 0.000244141H3.50004Z" fill="#E9F0FA"/>
<path fill-rule="evenodd" clip-rule="evenodd" d="M21 0.000244141V4.66683H25.6667L21.0001 0.000244141H21Z" fill="#C2CDDE"/>
</g>
<rect x="-0.666626" y="10.8335" width="25.6667" height="11.6667" rx="1.16667" fill="#0F8105"/>
<path d="M4.96784 13.0456L6.46264 15.5314H6.51567L8.01709 13.0456H9.41908L7.32769 16.4396L9.45222 19.8335H8.02703L6.51567 17.3643H6.46264L4.95127 19.8335H3.53271L5.67712 16.4396L3.55923 13.0456H4.96784ZM10.3844 19.8335V13.0456H11.614V18.8027H14.6036V19.8335H10.3844ZM19.3598 14.9116C19.3288 14.6222 19.1985 14.3968 18.9687 14.2355C18.7411 14.0742 18.445 13.9935 18.0804 13.9935C17.8241 13.9935 17.6042 14.0322 17.4209 14.1095C17.2375 14.1869 17.0971 14.2918 16.9999 14.4244C16.9027 14.557 16.853 14.7083 16.8508 14.8785C16.8508 15.0199 16.8828 15.1425 16.9469 15.2464C17.0132 15.3502 17.1027 15.4386 17.2154 15.5115C17.328 15.5822 17.4529 15.6419 17.5899 15.6905C17.7269 15.7391 17.865 15.78 18.0042 15.8131L18.6405 15.9722C18.8969 16.0319 19.1432 16.1125 19.3797 16.2142C19.6183 16.3158 19.8315 16.444 20.0193 16.5986C20.2094 16.7533 20.3596 16.94 20.4701 17.1588C20.5806 17.3775 20.6358 17.6338 20.6358 17.9277C20.6358 18.3254 20.5342 18.6757 20.3309 18.9784C20.1276 19.2789 19.8337 19.5142 19.4493 19.6843C19.067 19.8523 18.6041 19.9362 18.0605 19.9362C17.5324 19.9362 17.0739 19.8545 16.6851 19.691C16.2984 19.5275 15.9957 19.2888 15.7769 18.9751C15.5604 18.6613 15.4433 18.279 15.4256 17.8283H16.6353C16.653 18.0647 16.7259 18.2614 16.8541 18.4182C16.9822 18.5751 17.1491 18.6922 17.3546 18.7696C17.5623 18.8469 17.7943 18.8856 18.0506 18.8856C18.3179 18.8856 18.5522 18.8458 18.7532 18.7663C18.9565 18.6845 19.1156 18.5718 19.2305 18.4282C19.3454 18.2824 19.404 18.1122 19.4062 17.9178C19.404 17.741 19.352 17.5952 19.2504 17.4803C19.1488 17.3632 19.0062 17.2659 18.8228 17.1886C18.6417 17.1091 18.4295 17.0384 18.1865 16.9765L17.4142 16.7776C16.8552 16.634 16.4133 16.4164 16.0885 16.1247C15.7659 15.8308 15.6046 15.4408 15.6046 14.9547C15.6046 14.5548 15.7128 14.2045 15.9294 13.904C16.1481 13.6035 16.4453 13.3704 16.8209 13.2047C17.1966 13.0368 17.6219 12.9528 18.097 12.9528C18.5787 12.9528 19.0007 13.0368 19.3631 13.2047C19.7277 13.3704 20.0138 13.6013 20.2215 13.8974C20.4292 14.1913 20.5364 14.5294 20.543 14.9116H19.3598Z" fill="white"/>
</g>
<defs>
<clipPath id="clip0_559_7423">
<rect width="28" height="28" fill="white"/>
</clipPath>
<clipPath id="clip1_559_7423">
<rect width="23.3333" height="28" fill="white" transform="translate(2.33337 0.000244141)"/>
</clipPath>
</defs>
</svg>
