<svg width="20" height="20" viewBox="0 0 20 20" fill="none" xmlns="http://www.w3.org/2000/svg">
<path fill-rule="evenodd" clip-rule="evenodd" d="M12.757 4.29575C11.5174 3.05622 9.50746 3.05622 8.26795 4.29575L4.61346 7.95024C2.62692 9.93675 2.62692 13.1576 4.61346 15.1442C6.6 17.1307 9.82079 17.1307 11.8074 15.1442L17.0555 9.89608C17.2938 9.65767 17.6803 9.65767 17.9187 9.89608C18.157 10.1344 18.157 10.5209 17.9187 10.7593L12.6706 16.0074C10.2073 18.4707 6.2135 18.4707 3.75019 16.0074C1.28688 13.5441 1.28688 9.55025 3.75019 7.08697L7.40468 3.43248C9.12096 1.71619 11.9039 1.71619 13.6202 3.43248C15.3365 5.14878 15.3365 7.93171 13.6202 9.648L10.0555 13.2127C9.07146 14.1967 7.47468 14.1977 6.4902 13.2132C5.50526 12.2283 5.50607 10.6316 6.4902 9.64742L9.85404 6.28357C10.0925 6.04518 10.479 6.04518 10.7173 6.28357C10.9557 6.52195 10.9557 6.90845 10.7173 7.14683L7.35347 10.5107C6.84587 11.0182 6.84553 11.8421 7.35347 12.35C7.8607 12.8572 8.68454 12.8572 9.19221 12.3494L12.757 8.78475C13.9965 7.54521 13.9965 5.53528 12.757 4.29575Z" fill="#540E5C"/>
</svg>
