<svg width="20" height="20" viewBox="0 0 20 20" fill="none" xmlns="http://www.w3.org/2000/svg">
<path fill-rule="evenodd" clip-rule="evenodd" d="M3.19216 3.24781C3.97974 2.36764 5.10135 1.875 6.42573 1.875H13.1735C14.501 1.875 15.623 2.36737 16.4103 3.24804C17.193 4.12367 17.6 5.33241 17.6 6.68865V13.3113C17.6 14.6676 17.193 15.8763 16.4102 16.752C15.6228 17.6327 14.5005 18.125 13.1727 18.125H6.42573C5.09824 18.125 3.9763 17.6326 3.18926 16.7519C2.40674 15.8763 2 14.6675 2 13.3113V6.68865C2 5.33172 2.40894 4.12309 3.19216 3.24781ZM4.06996 4.1001C3.52819 4.70555 3.2 5.59126 3.2 6.68865V13.3113C3.2 14.4095 3.52689 15.2951 4.06761 15.9002C4.6038 16.5002 5.39473 16.875 6.42573 16.875H13.1727C14.2042 16.875 14.9955 16.5002 15.532 15.9001C16.073 15.295 16.4 14.4094 16.4 13.3113V6.68865C16.4 5.59057 16.073 4.70497 15.5321 4.09987C14.9957 3.49979 14.2045 3.125 13.1735 3.125H6.42573C5.39862 3.125 4.60737 3.49952 4.06996 4.1001Z" fill="white"/>
<path fill-rule="evenodd" clip-rule="evenodd" d="M9.76562 12.7539C9.76562 12.4087 10.0343 12.1289 10.3656 12.1289H13.8139C14.1452 12.1289 14.4139 12.4087 14.4139 12.7539C14.4139 13.0991 14.1452 13.3789 13.8139 13.3789H10.3656C10.0343 13.3789 9.76562 13.0991 9.76562 12.7539Z" fill="white"/>
<path fill-rule="evenodd" clip-rule="evenodd" d="M8.53911 11.0752C8.77335 11.3194 8.77319 11.7152 8.53887 11.9592L7.25607 13.2946C7.02173 13.5385 6.64193 13.5385 6.40767 13.2944L5.74917 12.6085C5.51485 12.3644 5.51485 11.9687 5.74917 11.7246C5.98348 11.4805 6.36337 11.4805 6.59769 11.7246L6.83206 11.9687L7.69057 11.075C7.92495 10.831 8.30487 10.8312 8.53911 11.0752Z" fill="white"/>
<path fill-rule="evenodd" clip-rule="evenodd" d="M8.53911 6.70663C8.77335 6.95078 8.77319 7.34651 8.53887 7.59052L7.25607 8.92592C7.02173 9.16983 6.64193 9.16983 6.40767 8.92575L5.74917 8.23984C5.51485 7.99576 5.51485 7.60003 5.74917 7.35596C5.98348 7.11188 6.36337 7.11188 6.59769 7.35596L6.83206 7.60009L7.69057 6.70636C7.92495 6.46236 8.30487 6.46248 8.53911 6.70663Z" fill="white"/>
<path fill-rule="evenodd" clip-rule="evenodd" d="M9.76562 8.38866C9.76562 8.04349 10.0343 7.76367 10.3656 7.76367H13.8139C14.1452 7.76367 14.4139 8.04349 14.4139 8.38866C14.4139 8.73383 14.1452 9.01366 13.8139 9.01366H10.3656C10.0343 9.01366 9.76562 8.73383 9.76562 8.38866Z" fill="white"/>
</svg>
