<svg width="30" height="30" viewBox="0 0 30 30" fill="none" xmlns="http://www.w3.org/2000/svg">
<path fill-rule="evenodd" clip-rule="evenodd" d="M4.98775 4.87171C6.21835 3.55146 7.97086 2.8125 10.0402 2.8125H20.5836C22.6577 2.8125 24.411 3.55105 25.6411 4.87206C26.8641 6.18551 27.5 7.99861 27.5 10.033V19.967C27.5 22.0014 26.8641 23.8145 25.6409 25.128C24.4106 26.449 22.657 27.1875 20.5824 27.1875H10.0402C7.966 27.1875 6.21297 26.4489 4.98321 25.1279C3.76052 23.8144 3.125 22.0013 3.125 19.967V10.033C3.125 7.99757 3.76396 6.18464 4.98775 4.87171ZM6.35931 6.15015C5.5128 7.05832 5 8.38689 5 10.033V19.967C5 21.6143 5.51076 22.9426 6.35564 23.8503C7.19344 24.7504 8.42926 25.3125 10.0402 25.3125H20.5824C22.194 25.3125 23.4305 24.7502 24.2688 23.8501C25.114 22.9425 25.625 21.6141 25.625 19.967V10.033C25.625 8.38585 25.114 7.05746 24.2689 6.1498C23.4307 5.24969 22.1945 4.6875 20.5836 4.6875H10.0402C8.43535 4.6875 7.19901 5.24929 6.35931 6.15015Z" fill="#C5C5C5"/>
<path fill-rule="evenodd" clip-rule="evenodd" d="M15.2588 19.1309C15.2588 18.6131 15.6785 18.1934 16.1963 18.1934H21.5841C22.1019 18.1934 22.5216 18.6131 22.5216 19.1309C22.5216 19.6486 22.1019 20.0684 21.5841 20.0684H16.1963C15.6785 20.0684 15.2588 19.6486 15.2588 19.1309Z" fill="#C5C5C5"/>
<path fill-rule="evenodd" clip-rule="evenodd" d="M13.3424 16.6126C13.7084 16.9789 13.7081 17.5725 13.342 17.9385L11.3376 19.9416C10.9715 20.3075 10.378 20.3075 10.012 19.9414L8.98309 18.9125C8.61696 18.5464 8.61696 17.9527 8.98309 17.5866C9.3492 17.2205 9.94279 17.2205 10.3089 17.5866L10.6751 17.9529L12.0165 16.6122C12.3828 16.2462 12.9764 16.2465 13.3424 16.6126Z" fill="#C5C5C5"/>
<path fill-rule="evenodd" clip-rule="evenodd" d="M13.3424 10.06C13.7084 10.4262 13.7081 11.0198 13.342 11.3858L11.3376 13.3889C10.9715 13.7548 10.378 13.7548 10.012 13.3886L8.98309 12.3598C8.61696 11.9936 8.61696 11.4001 8.98309 11.0339C9.3492 10.6678 9.94279 10.6678 10.3089 11.0339L10.6751 11.4001L12.0165 10.0595C12.3828 9.69354 12.9764 9.69371 13.3424 10.06Z" fill="#C5C5C5"/>
<path fill-rule="evenodd" clip-rule="evenodd" d="M15.2588 12.583C15.2588 12.0652 15.6785 11.6455 16.1963 11.6455H21.5841C22.1019 11.6455 22.5216 12.0652 22.5216 12.583C22.5216 13.1007 22.1019 13.5205 21.5841 13.5205H16.1963C15.6785 13.5205 15.2588 13.1007 15.2588 12.583Z" fill="#C5C5C5"/>
</svg>
