<svg width="30" height="30" viewBox="0 0 30 30" fill="none" xmlns="http://www.w3.org/2000/svg">
<path fill-rule="evenodd" clip-rule="evenodd" d="M21.2712 13.52H15.8837C15.3663 13.52 14.9462 13.1 14.9462 12.5825C14.9462 12.065 15.3663 11.645 15.8837 11.645H21.2712C21.7887 11.645 22.2087 12.065 22.2087 12.5825C22.2087 13.1 21.7887 13.52 21.2712 13.52ZM21.2712 20.0688H15.8837C15.3663 20.0688 14.9462 19.6488 14.9462 19.1313C14.9462 18.6138 15.3663 18.1938 15.8837 18.1938H21.2712C21.7887 18.1938 22.2087 18.6138 22.2087 19.1313C22.2087 19.6488 21.7887 20.0688 21.2712 20.0688ZM13.03 11.385L11.0262 13.39C10.85 13.565 10.6112 13.6637 10.3625 13.6637C10.1137 13.6637 9.875 13.565 9.7 13.3888L8.67 12.3588C8.305 11.9925 8.305 11.3988 8.67125 11.0325C9.03625 10.6675 9.63125 10.6662 9.9975 11.0337L10.3638 11.4L11.7037 10.06C12.07 9.69375 12.6637 9.69375 13.03 10.06C13.3962 10.4263 13.3962 11.02 13.03 11.385ZM13.03 17.9375L11.0262 19.9412C10.8425 20.125 10.6025 20.2163 10.3625 20.2163C10.1237 20.2163 9.88375 20.125 9.7 19.9412L8.67125 18.9125C8.305 18.5475 8.305 17.9537 8.67125 17.5875C9.0375 17.2212 9.63 17.2212 9.99625 17.5875L10.3625 17.9525L11.7037 16.6125C12.07 16.2463 12.6637 16.2463 13.03 16.6125C13.3962 16.9788 13.3962 17.5713 13.03 17.9375ZM20.2712 3.125H9.72875C5.77875 3.125 3.125 5.90125 3.125 10.0325V19.9675C3.125 24.0987 5.77875 26.875 9.72875 26.875H20.27C24.22 26.875 26.875 24.0987 26.875 19.9675V10.0325C26.875 5.90125 24.2212 3.125 20.2712 3.125Z" fill="#861C8C"/>
</svg>
