<svg width="20" height="20" viewBox="0 0 20 20" fill="none" xmlns="http://www.w3.org/2000/svg">
<path d="M17.0512 7.25983V12.7247C17.0512 13.4488 16.6645 14.1184 16.0377 14.4801L11.3051 17.2125C10.6775 17.5749 9.90483 17.5749 9.27725 17.2125L4.54459 14.4801C3.91784 14.1184 3.53108 13.4488 3.53108 12.7247V7.25983C3.53108 6.53498 3.91784 5.86606 4.54459 5.50363L9.27725 2.77122C9.90483 2.40959 10.6775 2.40959 11.3051 2.77122L16.0377 5.50363C16.6645 5.86606 17.0512 6.53498 17.0512 7.25983Z" stroke="#861C8C" stroke-width="1.25" stroke-linecap="round" stroke-linejoin="round"/>
<path opacity="0.4" d="M7.31282 4.20493L13.7895 7.95166V10.2348" stroke="#861C8C" stroke-width="1.25" stroke-linecap="round" stroke-linejoin="round"/>
<path d="M3.81184 6.2207L10.2886 9.96742L16.7645 6.2207" stroke="#861C8C" stroke-width="1.25" stroke-linecap="round" stroke-linejoin="round"/>
<path d="M10.293 17.4998V9.96176" stroke="#861C8C" stroke-width="1.25" stroke-linecap="round" stroke-linejoin="round"/>
</svg>
