<svg width="24" height="24" viewBox="0 0 24 24" fill="none" xmlns="http://www.w3.org/2000/svg">
<path fill-rule="evenodd" clip-rule="evenodd" d="M4.59758 4.95273C5.47985 4.07898 6.70781 3.67188 8.10636 3.67188H15.4219C16.8236 3.67188 18.0522 4.07866 18.9332 4.95341C19.8195 5.83345 20.2603 7.09417 20.2564 8.60159V16.8137C20.2564 18.3212 19.8135 19.5833 18.9272 20.465C18.0458 21.3417 16.8174 21.7514 15.4144 21.7514H8.10636C6.70336 21.7514 5.47387 21.3328 4.5925 20.4427C3.70758 19.549 3.26437 18.2716 3.26437 16.7456V8.60079C3.26437 7.09222 3.70976 5.83198 4.59758 4.95273ZM5.58978 6.03983C5.05107 6.57334 4.70437 7.40255 4.70437 8.60079V16.7456C4.70437 17.9682 5.05326 18.8187 5.59487 19.3658C6.14003 19.9163 6.97153 20.2514 8.10636 20.2514H15.4144C16.5568 20.2514 17.3893 19.9206 17.9326 19.3802C18.4709 18.8448 18.8164 18.013 18.8164 16.8137V8.60079V8.59865C18.8197 7.39986 18.4759 6.57159 17.9396 6.03915C17.3978 5.50113 16.5655 5.17187 15.4219 5.17187H8.10636C6.96708 5.17187 6.13404 5.50083 5.58978 6.03983ZM10.183 13.8636C10.4642 14.1565 10.4642 14.6314 10.183 14.9242L8.75949 16.4071C8.47832 16.7 8.02244 16.7 7.74126 16.4071L7.00989 15.6452C6.72872 15.3523 6.72872 14.8775 7.00989 14.5846C7.29107 14.2917 7.74695 14.2917 8.02812 14.5846L8.25037 14.8161L9.16476 13.8636C9.44594 13.5707 9.90182 13.5707 10.183 13.8636Z" fill="#861C8C"/>
<path fill-rule="evenodd" clip-rule="evenodd" d="M10.1827 9.01264C10.4639 9.30553 10.4639 9.78041 10.1827 10.0733L8.75923 11.5561C8.47806 11.849 8.02217 11.849 7.741 11.5561L7.00963 10.7943C6.72846 10.5014 6.72846 10.0265 7.00963 9.73361C7.29081 9.44072 7.74669 9.44072 8.02787 9.73361L8.25012 9.96512L9.1645 9.01264C9.44568 8.71975 9.90154 8.71975 10.1827 9.01264Z" fill="#861C8C"/>
<path fill-rule="evenodd" clip-rule="evenodd" d="M11.4543 15.7695C11.4543 15.3553 11.7767 15.0195 12.1743 15.0195H16.0021C16.3998 15.0195 16.7221 15.3553 16.7221 15.7695C16.7221 16.1837 16.3998 16.5195 16.0021 16.5195H12.1743C11.7767 16.5195 11.4543 16.1837 11.4543 15.7695Z" fill="#861C8C"/>
<path fill-rule="evenodd" clip-rule="evenodd" d="M11.4543 10.9219C11.4543 10.5077 11.7767 10.1719 12.1743 10.1719H16.0021C16.3998 10.1719 16.7221 10.5077 16.7221 10.9219C16.7221 11.3361 16.3998 11.6719 16.0021 11.6719H12.1743C11.7767 11.6719 11.4543 11.3361 11.4543 10.9219Z" fill="#861C8C"/>
<path fill-rule="evenodd" clip-rule="evenodd" d="M8.27438 2.25C8.67202 2.25 8.99438 2.58579 8.99438 3V5.57644C8.99438 5.99065 8.67202 6.32644 8.27438 6.32644C7.87674 6.32644 7.55438 5.99065 7.55438 5.57644V3C7.55438 2.58579 7.87674 2.25 8.27438 2.25ZM15.2547 2.25C15.6523 2.25 15.9747 2.58579 15.9747 3V5.57644C15.9747 5.99065 15.6523 6.32644 15.2547 6.32644C14.8571 6.32644 14.5347 5.99065 14.5347 5.57644V3C14.5347 2.58579 14.8571 2.25 15.2547 2.25Z" fill="#861C8C"/>
</svg>
