<svg width="16" height="16" viewBox="0 0 16 16" fill="none" xmlns="http://www.w3.org/2000/svg">
<path fill-rule="evenodd" clip-rule="evenodd" d="M9.25464 6.91566C9.53077 6.91566 9.75464 7.13953 9.75464 7.41566V8.5842C9.75464 8.86033 9.53077 9.0842 9.25464 9.0842C8.97851 9.0842 8.75464 8.86033 8.75464 8.5842V7.41566C8.75464 7.13953 8.97851 6.91566 9.25464 6.91566Z" fill="#861C8C"/>
<path fill-rule="evenodd" clip-rule="evenodd" d="M9.25233 2.36068C8.45853 2.19593 7.7146 2.80152 7.7146 3.61046L7.7146 12.3895C7.7146 13.1985 8.45853 13.8041 9.25233 13.6393L12.7342 12.9167C13.3273 12.7935 13.7521 12.2715 13.7521 11.6669L13.7521 4.33313C13.7521 3.72849 13.3273 3.20646 12.7342 3.08335L9.25233 2.36068ZM6.7146 3.61046C6.7146 2.16658 8.04193 1.08814 9.45553 1.38155L12.9374 2.10422C13.9941 2.32354 14.7521 3.25403 14.7521 4.33313L14.7521 11.6669C14.7521 12.746 13.9941 13.6765 12.9374 13.8958L9.45553 14.6185C8.04193 14.9119 6.7146 13.8335 6.7146 12.3895L6.7146 3.61046Z" fill="#861C8C"/>
<path fill-rule="evenodd" clip-rule="evenodd" d="M3.58521 10.6154C3.86135 10.6154 4.08521 10.8393 4.08521 11.1154C4.08521 11.7415 4.59326 12.2497 5.22078 12.2497H7.12219C7.39832 12.2497 7.62219 12.4736 7.62219 12.7497C7.62219 13.0259 7.39832 13.2497 7.12219 13.2497H5.22078C4.04168 13.2497 3.08521 12.2945 3.08521 11.1154C3.08521 10.8393 3.30907 10.6154 3.58521 10.6154Z" fill="#861C8C"/>
<path fill-rule="evenodd" clip-rule="evenodd" d="M3.44162 6.31389C3.24679 6.1182 2.9302 6.1175 2.73452 6.31233L1.39552 7.64546C1.30128 7.73926 1.2483 7.86673 1.24829 7.99973C1.24828 8.13273 1.30124 8.2602 1.39546 8.35406L2.73445 9.6876C2.93011 9.88246 3.24669 9.8818 3.44156 9.6862C3.63642 9.49053 3.63578 9.17393 3.44012 8.97906L2.95888 8.4998H5.66053C5.93668 8.4998 6.16053 8.27593 6.16053 7.9998C6.16053 7.7236 5.93668 7.4998 5.66053 7.4998L2.95917 7.4998L3.44006 7.021C3.63575 6.8262 3.63645 6.50958 3.44162 6.31389Z" fill="#861C8C"/>
<path fill-rule="evenodd" clip-rule="evenodd" d="M3.08521 4.88451C3.08521 3.70539 4.04168 2.75016 5.22078 2.75016H7.12219C7.39832 2.75016 7.62219 2.97402 7.62219 3.25016C7.62219 3.52631 7.39832 3.75016 7.12219 3.75016L5.22078 3.75016C4.59326 3.75016 4.08521 4.25838 4.08521 4.88451C4.08521 5.16065 3.86135 5.38451 3.58521 5.38451C3.30907 5.38451 3.08521 5.16065 3.08521 4.88451Z" fill="#861C8C"/>
</svg>
