<svg width="18" height="18" viewBox="0 0 18 18" fill="none" xmlns="http://www.w3.org/2000/svg">
<path fill-rule="evenodd" clip-rule="evenodd" d="M10.4114 7.78012C10.722 7.78012 10.9739 8.03197 10.9739 8.34262V9.65722C10.9739 9.96787 10.722 10.2197 10.4114 10.2197C10.1007 10.2197 9.84888 9.96787 9.84888 9.65722V8.34262C9.84888 8.03197 10.1007 7.78012 10.4114 7.78012Z" fill="#861C8C"/>
<path fill-rule="evenodd" clip-rule="evenodd" d="M10.4088 2.65576C9.51576 2.47042 8.67883 3.15171 8.67883 4.06176L8.67883 13.9382C8.67883 14.8483 9.51576 15.5296 10.4088 15.3442L14.3259 14.5312C14.9931 14.3927 15.471 13.8055 15.471 13.1252L15.471 4.87477C15.471 4.19455 14.9931 3.60726 14.3259 3.46876L10.4088 2.65576ZM7.55383 4.06176C7.55383 2.4374 9.04708 1.22416 10.6374 1.55424L14.5545 2.36725C15.7432 2.61397 16.596 3.66078 16.596 4.87477V13.1252C16.596 14.3392 15.7432 15.386 14.5545 15.6328L10.6374 16.4458C9.04708 16.7758 7.55383 15.5626 7.55383 13.9382L7.55383 4.06176Z" fill="#861C8C"/>
<path fill-rule="evenodd" clip-rule="evenodd" d="M4.03345 11.9423C4.3441 11.9423 4.59595 12.1942 4.59595 12.5048C4.59595 13.2092 5.16751 13.7809 5.87347 13.7809H8.01255C8.3232 13.7809 8.57505 14.0328 8.57505 14.3434C8.57505 14.6541 8.3232 14.9059 8.01255 14.9059H5.87347C4.54699 14.9059 3.47095 13.8313 3.47095 12.5048C3.47095 12.1942 3.72279 11.9423 4.03345 11.9423Z" fill="#861C8C"/>
<path fill-rule="evenodd" clip-rule="evenodd" d="M4.4632 7.10313C4.68238 6.88297 5.03854 6.88219 5.25869 7.10137L6.76506 8.60115C6.87107 8.70667 6.93067 8.85007 6.93069 8.9997C6.9307 9.14932 6.87112 9.29272 6.76513 9.39832L5.25876 10.8985C5.03864 11.1178 4.68249 11.117 4.46326 10.897C4.24404 10.6768 4.24477 10.3207 4.46488 10.1014L5.00628 9.56227H1.96692C1.65626 9.56227 1.40442 9.31042 1.40442 8.99977C1.40442 8.68905 1.65626 8.43727 1.96692 8.43727H5.00595L4.46495 7.89862C4.2448 7.67947 4.24401 7.32328 4.4632 7.10313Z" fill="#861C8C"/>
<path fill-rule="evenodd" clip-rule="evenodd" d="M3.47095 5.49508C3.47095 4.16856 4.54699 3.09393 5.87347 3.09393L8.01255 3.09393C8.3232 3.09393 8.57505 3.34578 8.57505 3.65643C8.57505 3.9671 8.3232 4.21893 8.01255 4.21893L5.87347 4.21893C5.16751 4.21893 4.59595 4.79068 4.59595 5.49508C4.59595 5.80574 4.3441 6.05758 4.03345 6.05758C3.72279 6.05758 3.47095 5.80574 3.47095 5.49508Z" fill="#861C8C"/>
</svg>
