<svg width="30" height="30" viewBox="0 0 30 30" fill="none" xmlns="http://www.w3.org/2000/svg">
<path fill-rule="evenodd" clip-rule="evenodd" d="M16.1 15.8375C16.1 16.1675 15.9262 16.4725 15.6437 16.6425L11.675 19.0175C11.525 19.1075 11.3587 19.15 11.195 19.15C10.8762 19.15 10.565 18.9888 10.39 18.695C10.1237 18.25 10.2687 17.675 10.7125 17.4088L14.225 15.3062V10.725C14.225 10.2075 14.645 9.7875 15.1625 9.7875C15.68 9.7875 16.1 10.2075 16.1 10.725V15.8375ZM16.9075 22.5225C16.9075 19.0962 19.6837 16.3188 23.11 16.3188C24.1282 16.3188 25.0821 16.5739 25.9276 17.011C26.1617 17.132 26.4563 17.0039 26.4953 16.7434C26.5807 16.1745 26.6275 15.5926 26.6275 15C26.6275 8.4525 21.3 3.125 14.7525 3.125C8.20497 3.125 2.87747 8.4525 2.87747 15C2.87747 21.5475 8.20497 26.875 14.7525 26.875C15.7816 26.875 16.7805 26.7434 17.7333 26.4959C17.9882 26.4296 18.0838 26.1234 17.9385 25.9039C17.2945 24.9314 16.9075 23.7765 16.9075 22.5225Z" fill="#861C8C"/>
<path fill-rule="evenodd" clip-rule="evenodd" d="M23.6203 26.6231C23.1028 26.6231 22.6828 26.2043 22.6828 25.6856V23.6606H20.6578C20.1403 23.6606 19.7203 23.2406 19.7203 22.7231C19.7203 22.2056 20.1403 21.7856 20.6578 21.7856H22.6828L22.6816 19.7643C22.6816 19.2468 23.1003 18.8268 23.6191 18.8268C24.1366 18.8268 24.5566 19.2468 24.5566 19.7643L24.5578 21.7868H26.5803C27.0978 21.7868 27.5178 22.2068 27.5178 22.7243C27.5178 23.2418 27.0978 23.6618 26.5803 23.6618H24.5578V25.6856C24.5578 26.2031 24.1391 26.6231 23.6203 26.6231Z" fill="#861C8C"/>
</svg>
