<svg width="30" height="30" viewBox="0 0 30 30" fill="none" xmlns="http://www.w3.org/2000/svg">
<path fill-rule="evenodd" clip-rule="evenodd" d="M3.18983 15C3.18983 8.26859 8.42768 2.8125 14.8898 2.8125C21.352 2.8125 26.5898 8.26859 26.5898 15C26.5898 15.5177 26.1869 15.9375 25.6898 15.9375C25.1928 15.9375 24.7898 15.5177 24.7898 15C24.7898 9.30411 20.3579 4.6875 14.8898 4.6875C9.42179 4.6875 4.98983 9.30411 4.98983 15C4.98983 20.6947 9.42185 25.3125 14.8898 25.3125C15.3869 25.3125 15.7898 25.7323 15.7898 26.25C15.7898 26.7677 15.3869 27.1875 14.8898 27.1875C8.42762 27.1875 3.18983 21.7301 3.18983 15Z" fill="#C5C5C5"/>
<path fill-rule="evenodd" clip-rule="evenodd" d="M15.2849 9.78271C15.7819 9.78271 16.1849 10.2025 16.1849 10.7202V15.8429C16.1849 16.1729 16.0184 16.4784 15.7466 16.6476L11.9368 19.0193C11.5101 19.2849 10.9576 19.1399 10.7026 18.6955C10.4476 18.251 10.5868 17.6754 11.0134 17.4098L14.3849 15.311V10.7202C14.3849 10.2025 14.7878 9.78271 15.2849 9.78271Z" fill="#C5C5C5"/>
<path fill-rule="evenodd" clip-rule="evenodd" d="M21.9374 17.6465C22.4346 17.6465 22.8374 18.0662 22.8374 18.584V25.818C22.8374 26.3357 22.4346 26.7555 21.9374 26.7555C21.4404 26.7555 21.0374 26.3357 21.0374 25.818V18.584C21.0374 18.0662 21.4404 17.6465 21.9374 17.6465Z" fill="#C5C5C5"/>
<path fill-rule="evenodd" clip-rule="evenodd" d="M17.564 22.1998C17.564 21.682 17.967 21.2623 18.464 21.2623H25.4088C25.9058 21.2623 26.3088 21.682 26.3088 22.1998C26.3088 22.7175 25.9058 23.1373 25.4088 23.1373H18.464C17.967 23.1373 17.564 22.7175 17.564 22.1998Z" fill="#C5C5C5"/>
</svg>
