<svg width="24" height="24" viewBox="0 0 24 24" fill="none" xmlns="http://www.w3.org/2000/svg">
<path fill-rule="evenodd" clip-rule="evenodd" d="M3.34595 6.88113C3.34595 6.48349 3.66831 6.16113 4.06595 6.16113H19.9343C20.3319 6.16113 20.6543 6.48349 20.6543 6.88113C20.6543 7.27877 20.3319 7.60113 19.9343 7.60113H4.06595C3.66831 7.60113 3.34595 7.27877 3.34595 6.88113Z" fill="#861C8C"/>
<path fill-rule="evenodd" clip-rule="evenodd" d="M5.3082 9.18212C5.70478 9.15314 6.04977 9.45115 6.07874 9.84776L6.66622 17.8883C6.76021 19.1766 7.83308 20.1741 9.12366 20.1741H14.877C16.1685 20.1741 17.2404 19.1767 17.3344 17.8894L17.9219 9.84776C17.9508 9.45116 18.2959 9.15315 18.6924 9.18212C19.089 9.2111 19.387 9.55608 19.3581 9.95269L18.7706 17.9942C18.6217 20.0337 16.9235 21.6141 14.877 21.6141H9.12366C7.07809 21.6141 5.37894 20.0337 5.23004 17.9933L4.64257 9.95269C4.6136 9.55608 4.9116 9.2111 5.3082 9.18212Z" fill="#861C8C"/>
<path fill-rule="evenodd" clip-rule="evenodd" d="M10.0263 2.89503H13.9815C14.8488 2.89503 15.6099 3.47792 15.8343 4.31727C15.8381 4.33137 15.8414 4.3456 15.8443 4.35991L16.3272 6.73689C16.4064 7.12657 16.1546 7.50665 15.7649 7.58581C15.3753 7.66497 14.9952 7.41325 14.916 7.02355L14.4385 4.6729C14.3774 4.47309 14.192 4.33503 13.9815 4.33503H10.0227C9.81033 4.3343 9.62448 4.47219 9.56273 4.67271L9.09006 7.02223C9.01163 7.41206 8.63203 7.66451 8.24219 7.58608C7.85237 7.50765 7.59991 7.12805 7.67835 6.73822L8.15654 4.36124C8.15955 4.3463 8.16303 4.33146 8.16698 4.31673C8.39267 3.47521 9.1562 2.89267 10.0263 2.89503Z" fill="#861C8C"/>
</svg>
