<svg width="30" height="30" viewBox="0 0 30 30" fill="none" xmlns="http://www.w3.org/2000/svg">
<path fill-rule="evenodd" clip-rule="evenodd" d="M6.94297 13.7305C5.64607 13.7305 4.70282 14.9622 5.04095 16.2147L7.10284 23.8546C7.33501 24.7146 8.1155 25.3121 9.00611 25.3121H20.9936C21.8837 25.3121 22.6634 24.7151 22.8956 23.8546L24.9587 16.2147C25.2967 14.9625 24.3539 13.7305 23.0555 13.7305H6.94297ZM3.23074 16.7034C2.5711 14.2597 4.4112 11.8555 6.94297 11.8555H23.0555C25.5882 11.8555 27.4286 14.2595 26.7689 16.7035L24.7057 24.3432C24.2529 26.0211 22.7317 27.1871 20.9936 27.1871H9.00611C7.26842 27.1871 5.7457 26.0216 5.29264 24.3432L3.23074 16.7034Z" fill="#861C8C"/>
<path fill-rule="evenodd" clip-rule="evenodd" d="M9.608 3.75C9.608 3.23224 10.0277 2.8125 10.5455 2.8125H19.4508C19.9685 2.8125 20.3883 3.23224 20.3883 3.75C20.3883 4.26776 19.9685 4.6875 19.4508 4.6875H10.5455C10.0277 4.6875 9.608 4.26776 9.608 3.75ZM6.16455 7.9725C6.16455 7.45474 6.58429 7.035 7.10205 7.035H22.8945C23.4122 7.035 23.832 7.45474 23.832 7.9725C23.832 8.49026 23.4122 8.91 22.8945 8.91H7.10205C6.58429 8.91 6.16455 8.49026 6.16455 7.9725Z" fill="#861C8C"/>
</svg>
