<svg width="24" height="24" viewBox="0 0 24 24" fill="none" xmlns="http://www.w3.org/2000/svg">
<path d="M8.4121 3H16.5094C19.3396 3 21.1013 5.08119 21.1013 8.02638V15.9736C21.1013 18.9188 19.3396 21 16.5085 21H8.4121C5.58192 21 3.82123 18.9188 3.82123 15.9736V8.02638C3.82123 5.08119 5.59033 3 8.4121 3Z" stroke="#861C8C" stroke-width="1.5" stroke-linecap="round" stroke-linejoin="round"/>
<path fill-rule="evenodd" clip-rule="evenodd" d="M12.4645 9.14815C12.4692 8.37463 11.8714 7.74415 11.1298 7.73831C10.3871 7.73344 9.78098 8.35615 9.77627 9.12869C9.77166 9.9022 10.3695 10.5337 11.1111 10.5385H11.1204C11.8601 10.5414 12.4617 9.91874 12.4645 9.14815Z" stroke="#861C8C" stroke-width="1.5" stroke-linecap="round" stroke-linejoin="round"/>
<path fill-rule="evenodd" clip-rule="evenodd" d="M12.4594 14.8513C12.4548 15.6248 13.0526 16.2553 13.7942 16.2612C14.5367 16.266 15.143 15.6433 15.1477 14.8708C15.1523 14.0973 14.5545 13.4658 13.8129 13.4609H13.8036C13.0638 13.458 12.4623 14.0807 12.4594 14.8513Z" stroke="#861C8C" stroke-width="1.5" stroke-linecap="round" stroke-linejoin="round"/>
<path d="M8.45251 14.8613H12.4596M15.1514 14.8613H16.4684" stroke="#861C8C" stroke-width="1.5" stroke-linecap="round" stroke-linejoin="round"/>
<path d="M16.4677 9.13867H12.4605M9.76955 9.13867H8.45251" stroke="#861C8C" stroke-width="1.5" stroke-linecap="round" stroke-linejoin="round"/>
</svg>
