<svg width="16" height="16" viewBox="0 0 16 16" fill="none" xmlns="http://www.w3.org/2000/svg">
<path fill-rule="evenodd" clip-rule="evenodd" d="M12.977 2.29943C12.815 2.21343 12.6157 2.22276 12.463 2.32609C12.4477 2.33543 10.9423 3.31276 8.09567 2.09409C4.69501 0.641424 2.97701 2.30076 2.90501 2.37209C2.81101 2.46609 2.75834 2.59276 2.75834 2.72609L2.75834 14.0007C2.75834 14.2767 2.98234 14.5007 3.25834 14.5007C3.53434 14.5007 3.75834 14.2767 3.75834 14.0007L3.75834 9.3654C4.17434 9.08007 5.45034 8.4514 7.70167 9.41407C11.0463 10.8454 12.943 9.61073 13.021 9.55673C13.159 9.4634 13.2417 9.30873 13.2417 9.14207L13.2417 2.74076C13.2417 2.55609 13.1397 2.38676 12.977 2.29943Z" fill="#FD5B71"/>
</svg>
