<svg width="30" height="30" viewBox="0 0 30 30" fill="none" xmlns="http://www.w3.org/2000/svg">
<path d="M21.1784 15.8905C20.1825 15.8717 19.2092 15.5788 18.3571 15.0417C17.2983 14.5012 16.4642 13.5783 16.0101 12.4448C15.5561 11.3113 15.5129 10.0446 15.8887 8.88044C16.499 7.0835 17.7596 5.60629 19.4011 4.76419C20.9571 3.91681 22.6461 3.36646 24.3883 3.13919C24.5639 3.12723 24.7389 3.16961 24.8913 3.26104C25.0439 3.35245 25.1669 3.48881 25.2451 3.65294C25.9269 5.33939 26.3126 7.13958 26.3839 8.96794C26.5065 10.8702 25.9081 12.7466 24.7171 14.1942C24.2767 14.7225 23.7333 15.147 23.1231 15.4393C22.5129 15.7318 21.8501 15.8856 21.1784 15.8905ZM23.8639 5.10669C22.6003 5.36856 21.3777 5.8124 20.2316 6.42544C19.0115 7.03691 18.0681 8.11985 17.6023 9.44419C17.3501 10.2021 17.3802 11.031 17.6867 11.7669C17.993 12.5027 18.5535 13.092 19.2571 13.418C19.8801 13.8896 20.6504 14.1 21.4154 14.0073C22.1803 13.9147 22.8839 13.5258 23.3863 12.918C24.2559 11.8386 24.6865 10.4482 24.5863 9.04294C24.5225 7.70225 24.2793 6.37739 23.8639 5.10669Z" fill="#C5C5C5"/>
<path d="M9.32852 20.1431C8.52077 20.1343 7.72685 19.9234 7.01371 19.5281C5.41631 18.5987 4.23175 17.0548 3.71371 15.2268C3.17429 13.4862 2.93737 11.6592 3.0141 9.83185C3.03386 9.64926 3.10454 9.47669 3.21734 9.33541C3.33014 9.19415 3.48013 9.09036 3.64889 9.03685C5.35878 8.62379 7.12585 8.53277 8.86651 8.7681C10.6866 8.96465 12.3605 9.89567 13.5296 11.3618C14.27 12.3184 14.6512 13.5227 14.6021 14.7503C14.5531 15.9779 14.0773 17.1452 13.2634 18.0343C12.8009 18.6702 12.2071 19.1898 11.5261 19.5548C10.8451 19.9198 10.0941 20.1208 9.32852 20.1431ZM4.79249 10.6968C4.82664 12.0394 5.0399 13.3704 5.42611 14.6518C5.79866 16.0083 6.66439 17.1599 7.8393 17.8618C8.51321 18.2493 9.30219 18.3589 10.05 18.1691C10.7979 17.9792 11.45 17.5038 11.8773 16.8368C12.4288 16.2768 12.7584 15.5216 12.8011 14.7204C12.8437 13.9194 12.5963 13.1308 12.1078 12.5106C11.2308 11.4349 9.98581 10.7578 8.63726 10.6231C7.35861 10.4612 6.06456 10.486 4.79249 10.6968Z" fill="#C5C5C5"/>
<path d="M15.9945 26.863C15.7755 26.8626 15.5641 26.7792 15.4001 26.6282C15.2359 26.4774 15.1302 26.2692 15.1027 26.043C13.8787 15.998 19.3687 11.0167 19.6087 10.8092C19.7913 10.6544 20.0247 10.5802 20.259 10.6025C20.4934 10.6248 20.71 10.7418 20.8625 10.9285C21.015 11.1152 21.0913 11.3566 21.075 11.6012C21.0587 11.8457 20.9511 12.0739 20.7753 12.2367C20.5713 12.4192 15.7963 16.818 16.8919 25.8067C16.9069 25.9289 16.8987 26.0529 16.8677 26.1717C16.8366 26.2905 16.7835 26.4017 16.7112 26.4991C16.6389 26.5965 16.5487 26.6781 16.4461 26.7392C16.3435 26.8004 16.2305 26.8399 16.1133 26.8555C16.0738 26.8606 16.0342 26.8631 15.9945 26.863Z" fill="#C5C5C5"/>
<path d="M15.8001 23.443C15.5794 23.4426 15.3666 23.358 15.202 23.205C15.0375 23.0519 14.9325 22.8412 14.9073 22.613C14.4273 18.238 10.0712 16.4017 10.028 16.3842C9.91773 16.339 9.817 16.2716 9.7317 16.1859C9.64639 16.1001 9.57817 15.9976 9.53087 15.8845C9.48356 15.7712 9.45811 15.6494 9.45601 15.5259C9.45391 15.4025 9.47522 15.2797 9.51864 15.1649C9.56206 15.05 9.62674 14.9451 9.70907 14.8562C9.79139 14.7674 9.88967 14.6962 9.99838 14.647C10.1071 14.5977 10.2241 14.5712 10.3426 14.569C10.4611 14.5669 10.5789 14.589 10.6892 14.6342C10.91 14.7255 16.0893 16.9167 16.6953 22.393C16.7225 22.64 16.6546 22.8881 16.5063 23.083C16.3581 23.2777 16.1415 23.4032 15.9045 23.4317C15.8685 23.4405 15.8337 23.443 15.8001 23.443Z" fill="#C5C5C5"/>
</svg>
