<svg width="30" height="30" viewBox="0 0 30 30" fill="none" xmlns="http://www.w3.org/2000/svg">
<path fill-rule="evenodd" clip-rule="evenodd" d="M19.1166 15.0418C19.9686 15.5789 20.9419 15.8716 21.9378 15.8905C22.6094 15.8856 23.2724 15.7319 23.8825 15.4394C24.4927 15.1469 25.0361 14.7224 25.4765 14.1943C26.6676 12.7466 27.2659 10.8702 27.1433 8.96794C27.072 7.13958 26.6863 5.33939 26.0045 3.65294C25.9264 3.48881 25.8032 3.35245 25.6507 3.26104C25.4983 3.16963 25.3232 3.12723 25.1478 3.13919C23.4055 3.36646 21.7165 3.91681 20.1606 4.76419C18.519 5.60629 17.2584 7.0835 16.6482 8.88044C16.2722 10.0446 16.3154 11.3114 16.7695 12.4448C17.2236 13.5783 18.0577 14.5013 19.1166 15.0418ZM7.77308 19.5276C8.48622 19.9229 9.28014 20.1338 10.0879 20.1426C10.8535 20.1204 11.6044 19.9194 12.2855 19.5544C12.9665 19.1894 13.5602 18.6698 14.0227 18.0339C14.8367 17.1446 15.3125 15.9775 15.3614 14.7499C15.4105 13.5223 15.0294 12.3179 14.2891 11.3614C13.1198 9.89519 11.446 8.96415 9.6259 8.76761C7.88522 8.53229 6.11815 8.6233 4.40826 9.03636C4.2395 9.08986 4.08953 9.19365 3.97672 9.33493C3.86392 9.47619 3.79324 9.64876 3.77347 9.83136C3.69674 11.6587 3.93366 13.4858 4.47308 15.2264C4.99112 17.0543 6.17568 18.5983 7.77308 19.5276ZM16.1594 26.6278C16.3235 26.7787 16.5348 26.8621 16.7538 26.8625C16.7935 26.8626 16.8331 26.8601 16.8726 26.855C16.9898 26.8394 17.1029 26.7999 17.2055 26.7388C17.3081 26.6776 17.3982 26.596 17.4706 26.4986C17.5428 26.4013 17.596 26.29 17.627 26.1712C17.6581 26.0524 17.6663 25.9284 17.6514 25.8063C16.5558 16.8175 21.3306 12.4188 21.5346 12.2363C21.7104 12.0734 21.818 11.8452 21.8344 11.6007C21.8507 11.3562 21.7744 11.1147 21.6218 10.928C21.4693 10.7413 21.2527 10.6243 21.0184 10.602C20.784 10.5797 20.5506 10.654 20.3681 10.8088C20.1965 10.9572 17.3389 13.5479 16.1734 18.6869C14.4373 15.8956 11.6104 14.7001 11.4486 14.6333C11.3382 14.588 11.2205 14.5659 11.102 14.568C10.9834 14.5703 10.8664 14.5968 10.7577 14.646C10.649 14.6953 10.5507 14.7664 10.4684 14.8553C10.3861 14.944 10.3214 15.0489 10.278 15.1639C10.2346 15.2788 10.2133 15.4014 10.2154 15.5249C10.2175 15.6484 10.2429 15.7701 10.2902 15.8834C10.3375 15.9966 10.4058 16.099 10.4911 16.1848C10.5764 16.2705 10.6771 16.338 10.7874 16.3833C10.8306 16.4008 15.1866 18.237 15.6666 22.612C15.6713 22.6544 15.6787 22.6961 15.6888 22.7371C15.668 23.7705 15.7195 24.8721 15.8621 26.0425C15.8896 26.2687 15.9953 26.4769 16.1594 26.6278Z" fill="#861C8C"/>
</svg>
