<svg width="72" height="72" viewBox="0 0 72 72" fill="none" xmlns="http://www.w3.org/2000/svg">
<path d="M35.9804 6.00098C49.9684 6.00098 61.5001 17.1546 61.5001 30.9542C61.5001 37.908 58.9711 44.3639 54.8086 49.8357C50.2165 55.8715 44.5565 61.1304 38.1857 65.2583C36.7276 66.2122 35.4117 66.2842 33.8114 65.2583C27.4043 61.1304 21.7443 55.8715 17.1916 49.8357C13.026 44.3639 10.5001 37.908 10.5001 30.9542C10.5001 17.1546 22.0317 6.00098 35.9804 6.00098ZM35.9804 23.3315C31.355 23.3315 27.5827 27.1444 27.5827 31.7312C27.5827 36.3541 31.355 39.99 35.9804 39.99C40.6088 39.99 44.4174 36.3541 44.4174 31.7312C44.4174 27.1444 40.6088 23.3315 35.9804 23.3315Z" fill="#861C8C"/>
</svg>
