<svg width="20" height="20" viewBox="0 0 20 20" fill="none" xmlns="http://www.w3.org/2000/svg">
<path fill-rule="evenodd" clip-rule="evenodd" d="M11.4119 4.62237C11.4119 3.96987 10.8844 3.44238 10.2319 3.44238C9.58023 3.44238 9.05273 3.96987 9.05273 4.62237C9.05273 5.2732 9.58023 5.80154 10.2319 5.80154C10.8844 5.80154 11.4119 5.2732 11.4119 4.62237Z" stroke="#861C8C" stroke-width="1.25" stroke-linecap="round" stroke-linejoin="round"/>
<path opacity="0.4" d="M9.0726 4.8148L3.15756 5.80065M17.3093 3.43896L11.3943 4.42481" stroke="#861C8C" stroke-width="1.25" stroke-linecap="round" stroke-linejoin="round"/>
<path d="M4.28384 17.0327H16.1822" stroke="#861C8C" stroke-width="1.25" stroke-linecap="round" stroke-linejoin="round"/>
<path opacity="0.4" d="M7.78647 14.8664H12.6781M10.2323 14.8664V5.80225" stroke="#861C8C" stroke-width="1.25" stroke-linecap="round" stroke-linejoin="round"/>
<path fill-rule="evenodd" clip-rule="evenodd" d="M2.91666 11.8761L5.13915 7.32275L7.38748 11.8761C6.08248 13.6702 3.76332 13.5219 2.91666 11.8761Z" stroke="#861C8C" stroke-width="1.25" stroke-linecap="round" stroke-linejoin="round"/>
<path fill-rule="evenodd" clip-rule="evenodd" d="M13.4457 10.1603L15.6682 5.60693L17.9165 10.1603C16.6115 11.9536 14.2923 11.8061 13.4457 10.1603Z" stroke="#861C8C" stroke-width="1.25" stroke-linecap="round" stroke-linejoin="round"/>
</svg>
