<svg width="20" height="20" viewBox="0 0 20 20" fill="none" xmlns="http://www.w3.org/2000/svg">
<path d="M16.1814 5.70595L16.8098 6.79405C17.2914 7.62837 17.0044 8.69458 16.1708 9.17625C15.5377 9.54267 15.5377 10.4573 16.1708 10.823C17.0052 11.3046 17.2914 12.3716 16.8098 13.2052L16.1814 14.2941C15.6998 15.1284 14.6328 15.4137 13.7984 14.9322C13.1652 14.5665 12.373 15.0238 12.373 15.7552C12.373 16.7184 11.5923 17.5 10.629 17.5H9.37226C8.40901 17.5 7.62818 16.7184 7.62818 15.7552C7.62818 15.0238 6.83602 14.5665 6.20196 14.9322C5.36764 15.4137 4.30142 15.1284 3.8198 14.2941L3.19143 13.2052C2.7098 12.3716 2.99521 11.3046 3.82953 10.823C4.46358 10.4573 4.46358 9.54267 3.82953 9.17625C2.99521 8.69458 2.7098 7.62837 3.19143 6.79405L3.8198 5.70595C4.30142 4.87162 5.36764 4.58541 6.20196 5.06702C6.83602 5.43352 7.62818 4.97622 7.62818 4.24405C7.62818 3.28081 8.40901 2.5 9.37226 2.5H10.629C11.5923 2.5 12.373 3.28081 12.373 4.24405C12.373 4.97622 13.166 5.43352 13.7993 5.06702C14.6328 4.58541 15.6998 4.87162 16.1814 5.70595Z" stroke="#861C8C" stroke-width="1.25" stroke-linecap="round" stroke-linejoin="round"/>
<path opacity="0.4" d="M12.6772 10.0001C12.6772 8.52116 11.4788 7.32275 9.99993 7.32275C8.52101 7.32275 7.3226 8.52116 7.3226 10.0001C7.3226 11.479 8.52101 12.6773 9.99993 12.6773C11.4788 12.6773 12.6772 11.479 12.6772 10.0001Z" stroke="#861C8C" stroke-width="1.25" stroke-linecap="round" stroke-linejoin="round"/>
</svg>
