<svg width="20" height="20" viewBox="0 0 20 20" fill="none" xmlns="http://www.w3.org/2000/svg">
<path fill-rule="evenodd" clip-rule="evenodd" d="M15.9879 14.03H8.71545C8.25541 14.03 7.88208 14.4025 7.88208 14.8634C7.88208 15.3242 8.25541 15.6967 8.71545 15.6967H15.9879C16.4488 15.6967 16.8213 15.3242 16.8213 14.8634C16.8213 14.4025 16.4488 14.03 15.9879 14.03Z" fill="#540E5C"/>
<path fill-rule="evenodd" clip-rule="evenodd" d="M15.9879 9.16675H8.71545C8.25541 9.16675 7.88208 9.53925 7.88208 10.0001C7.88208 10.4609 8.25541 10.8334 8.71545 10.8334H15.9879C16.4488 10.8334 16.8213 10.4609 16.8213 10.0001C16.8213 9.53925 16.4488 9.16675 15.9879 9.16675Z" fill="#540E5C"/>
<path fill-rule="evenodd" clip-rule="evenodd" d="M8.71586 5.98625H15.9884C16.4484 5.98625 16.8217 5.61375 16.8217 5.15291C16.8217 4.69208 16.4484 4.31958 15.9884 4.31958H8.71586C8.2559 4.31958 7.88257 4.69208 7.88257 5.15291C7.88257 5.61375 8.2559 5.98625 8.71586 5.98625Z" fill="#540E5C"/>
<path fill-rule="evenodd" clip-rule="evenodd" d="M4.49906 13.5286C3.77072 13.5286 3.17822 14.1211 3.17822 14.8494C3.17822 15.5777 3.77072 16.1702 4.49906 16.1702C5.22739 16.1702 5.81989 15.5777 5.81989 14.8494C5.81989 14.1211 5.22739 13.5286 4.49906 13.5286Z" fill="#540E5C"/>
<path fill-rule="evenodd" clip-rule="evenodd" d="M4.49906 8.67847C3.77072 8.67847 3.17822 9.27097 3.17822 9.9993C3.17822 10.7276 3.77072 11.3201 4.49906 11.3201C5.22739 11.3201 5.81989 10.7276 5.81989 9.9993C5.81989 9.27097 5.22739 8.67847 4.49906 8.67847Z" fill="#540E5C"/>
<path fill-rule="evenodd" clip-rule="evenodd" d="M4.49906 3.8313C3.77072 3.8313 3.17822 4.4238 3.17822 5.15213C3.17822 5.87963 3.77072 6.47213 4.49906 6.47213C5.22739 6.47213 5.81989 5.87963 5.81989 5.15213C5.81989 4.4238 5.22739 3.8313 4.49906 3.8313Z" fill="#540E5C"/>
</svg>
